<?xml version="1.0" encoding="utf-8"?>
<!-- Generator: Adobe Illustrator 25.4.1, SVG Export Plug-In . SVG Version: 6.00 Build 0)  -->
<svg version="1.1" id="Capa_1" xmlns="http://www.w3.org/2000/svg" xmlns:xlink="http://www.w3.org/1999/xlink" x="0px" y="0px"
	 viewBox="0 0 1920 1080" style="enable-background:new 0 0 1920 1080;" xml:space="preserve">
<style type="text/css">
	.st0{fill:#C5342C;}
	.st1{fill:#8B1F15;}
	.st2{fill:#F1604F;}
	.st3{fill:#EF4138;}
	.st4{fill:#FDC00F;}
	.st5{fill:#58595B;}
	.st6{fill:#282828;}
	.st7{fill:#FFDE00;}
	.st8{fill:#FFC62A;}
	.st9{fill:#E99E00;}
	.st10{fill:#C67F00;}
	.st11{fill:#11100E;}
	.st12{fill:#23221D;}
	.st13{fill:#E8E8E8;}
	.st14{fill:#539156;}
	.st15{fill:#61B876;}
	.st16{fill:#4E844F;}
	.st17{fill:#D8D8D8;}
	.st18{fill:#E4E4E4;}
	.st19{fill:#3C3C4C;}
	.st20{fill:#4B4C5E;}
	.st21{fill:#353B60;}
	.st22{fill:#565666;}
	.st23{fill:#FFCA10;}
	.st24{fill:#D8211D;}
	.st25{fill:#FA3A30;}
	.st26{fill:#C4DEEE;}
	.st27{fill:#E7F2FB;}
	.st28{fill:#BA2522;}
	.st29{fill:#009CAE;}
	.st30{fill:#23B4C6;}
	.st31{fill:#FFFFFF;}
	.st32{fill:#23273D;}
	.st33{fill:#E09705;}
	.st34{fill:#FDAE00;}
	.st35{fill:#E59900;}
	.st36{fill:#89D7E5;}
	.st37{fill:#11AEBF;}
	.st38{fill:#222147;}
	.st39{fill:#E00E05;}
	.st40{fill:#A70904;}
	.st41{fill:#1B1B1B;}
	.st42{fill:#FD3E35;}
	.st43{fill:#FFC929;}
	.st44{fill:#17171C;}
	.st45{fill:#47525E;}
</style>
<g>
	<g>
		<g>
			<path class="st0" d="M1586.73,888.19v88.27c0,5.35-4.61,9.68-10.3,9.68h-228.97c-5.69,0-10.3-4.33-10.3-9.68v-88.27H1586.73z"/>
			<g>
				<path class="st1" d="M1362.08,883.6v85.63c0,4.16-3.79,7.52-8.47,7.52c-4.68,0-8.47-3.37-8.47-7.52V883.6H1362.08z"/>
				<path class="st1" d="M1389.5,883.6v85.63c0,4.16-3.79,7.52-8.47,7.52c-4.68,0-8.47-3.37-8.47-7.52V883.6H1389.5z"/>
				<path class="st1" d="M1416.92,883.6v85.63c0,4.16-3.79,7.52-8.47,7.52c-4.68,0-8.47-3.37-8.47-7.52V883.6H1416.92z"/>
				<path class="st1" d="M1444.35,883.6v85.63c0,4.16-3.79,7.52-8.47,7.52c-4.68,0-8.47-3.37-8.47-7.52V883.6H1444.35z"/>
				<path class="st1" d="M1471.77,883.6v85.63c0,4.16-3.79,7.52-8.47,7.52c-4.68,0-8.47-3.37-8.47-7.52V883.6H1471.77z"/>
				<path class="st1" d="M1499.19,883.6v85.63c0,4.16-3.79,7.52-8.47,7.52c-4.68,0-8.47-3.37-8.47-7.52V883.6H1499.19z"/>
				<path class="st1" d="M1526.62,883.6v85.63c0,4.16-3.79,7.52-8.47,7.52c-4.68,0-8.47-3.37-8.47-7.52V883.6H1526.62z"/>
				<path class="st1" d="M1554.04,883.6v85.63c0,4.16-3.79,7.52-8.47,7.52c-4.68,0-8.47-3.37-8.47-7.52V883.6H1554.04z"/>
				<path class="st1" d="M1581.46,883.6v85.63c0,4.16-3.79,7.52-8.47,7.52c-4.68,0-8.47-3.37-8.47-7.52V883.6H1581.46z"/>
			</g>
		</g>
		<path class="st2" d="M1590.82,860.88h-257.73c1.6-10.69,10.82-18.89,21.95-18.89h213.83
			C1580,841.99,1589.22,850.19,1590.82,860.88z"/>
		<path class="st3" d="M1591.06,864.19v42.13h-258.22v-42.13c0-1.12,0.08-2.23,0.24-3.31h257.73
			C1590.98,861.96,1591.06,863.07,1591.06,864.19z"/>
		<path class="st4" d="M1520.09,906.32c0,4.05-1.65,7.73-4.3,10.38c-2.66,2.66-6.33,4.3-10.38,4.3h-84.13
			c-8.11,0-14.68-6.58-14.68-14.68c0-4.06,1.65-7.73,4.3-10.39c2.66-2.66,6.33-4.3,10.38-4.3h84.13
			C1513.52,891.63,1520.09,898.21,1520.09,906.32z"/>
		<g>
			<path class="st5" d="M1526.75,832.31v19.09h-10.06v-19.09c0-9.5-7.74-17.24-17.24-17.24h-72.21c-9.5,0-17.23,7.74-17.23,17.24
				v19.09h-10.06v-19.09c0-15.06,12.25-27.3,27.3-27.3h72.21C1514.51,805.01,1526.75,817.26,1526.75,832.31z"/>
		</g>
		<g>
			<path class="st6" d="M1427.24,815.07h4.83c-9.5,0-17.23,7.74-17.23,17.24v19.09h-4.83v-19.09
				C1410.01,822.81,1417.74,815.07,1427.24,815.07z"/>
			<path class="st6" d="M1531.58,832.31v19.09h-4.83v-19.09c0-15.06-12.25-27.3-27.3-27.3h4.83
				C1519.34,805.01,1531.58,817.26,1531.58,832.31z"/>
		</g>
		<path class="st7" d="M1510.35,901.61c0,1.43-0.58,2.73-1.52,3.66s-2.23,1.52-3.66,1.52h-81.99c-2.86,0-5.18-2.32-5.18-5.18
			c0-1.43,0.58-2.72,1.52-3.66c0.94-0.94,2.23-1.52,3.66-1.52h81.99C1508.03,896.44,1510.35,898.75,1510.35,901.61z"/>
	</g>
	<g>
		<path class="st8" d="M385.13,283.99c-0.89-0.53-2.04-0.24-2.57,0.65l-40.51,67.88c-0.53,0.89-0.24,2.04,0.65,2.57
			c0.3,0.18,0.63,0.26,0.96,0.26c0.64,0,1.26-0.33,1.61-0.91l40.51-67.88C386.31,285.67,386.02,284.52,385.13,283.99z"/>
		<path class="st9" d="M342.7,283.99c0.89-0.53,2.04-0.24,2.57,0.65l40.51,67.88c0.53,0.89,0.24,2.04-0.65,2.57
			c-0.3,0.18-0.63,0.26-0.96,0.26c-0.64,0-1.26-0.33-1.61-0.91l-40.51-67.88C341.52,285.67,341.81,284.52,342.7,283.99z"/>
		<path class="st8" d="M440.17,281.04c-1.06-0.53-2.42-0.24-3.06,0.65l-48.24,67.88c-0.63,0.89-0.28,2.04,0.77,2.57
			c0.36,0.18,0.75,0.26,1.14,0.26c0.76,0,1.5-0.33,1.92-0.91l48.24-67.88C441.57,282.72,441.22,281.57,440.17,281.04z"/>
		<path class="st9" d="M390.69,286.35c1.03-0.49,2.37-0.22,2.99,0.6l47.26,62.83c0.62,0.82,0.28,1.88-0.76,2.38
			c-0.35,0.17-0.74,0.24-1.12,0.24c-0.74,0-1.47-0.3-1.88-0.84l-47.26-62.83C389.32,287.9,389.65,286.84,390.69,286.35z"/>
		<path class="st8" d="M440.12,170.81c-1.05-0.66-2.42-0.3-3.06,0.81l-48.24,85.12c-0.63,1.11-0.29,2.55,0.77,3.22
			c0.36,0.22,0.75,0.33,1.14,0.33c0.76,0,1.5-0.41,1.92-1.14l48.24-85.12C441.52,172.92,441.18,171.48,440.12,170.81z"/>
		<path class="st9" d="M388.15,175.11c1.08-0.63,2.49-0.28,3.14,0.77l49.59,81.03c0.65,1.06,0.29,2.43-0.79,3.06
			c-0.37,0.21-0.77,0.32-1.17,0.32c-0.78,0-1.54-0.39-1.97-1.09l-49.59-81.03C386.71,177.11,387.07,175.74,388.15,175.11z"/>
		<path class="st8" d="M440.17,352.63c-1.05-0.53-2.42-0.24-3.06,0.65l-48.24,67.88c-0.63,0.89-0.28,2.04,0.77,2.57
			c0.36,0.18,0.75,0.26,1.14,0.26c0.76,0,1.5-0.33,1.92-0.91l48.24-67.88C441.57,354.31,441.22,353.16,440.17,352.63z"/>
		<path class="st9" d="M397.91,351.8c0.89-0.54,2.04-0.24,2.57,0.66l40.51,68.66c0.53,0.9,0.24,2.06-0.65,2.6
			c-0.3,0.18-0.63,0.27-0.96,0.27c-0.64,0-1.26-0.33-1.61-0.92l-40.51-68.66C396.73,353.5,397.02,352.34,397.91,351.8z"/>
		<path class="st8" d="M441.53,424.5c-1.11-0.49-2.56-0.22-3.23,0.59l-50.93,62.24c-0.66,0.81-0.3,1.87,0.81,2.35
			c0.38,0.16,0.79,0.24,1.2,0.24c0.8,0,1.58-0.3,2.02-0.84l50.93-62.24C443.01,426.03,442.65,424.98,441.53,424.5z"/>
		<path class="st9" d="M390.56,425.62c0.98-0.6,2.32-0.4,2.98,0.46l51.01,65.4c0.67,0.86,0.41,2.04-0.57,2.64
			c-0.33,0.2-0.71,0.31-1.08,0.34c-0.73,0.05-1.46-0.23-1.9-0.8L390,428.26C389.33,427.4,389.58,426.22,390.56,425.62z"/>
		<path class="st8" d="M441.58,493.18c-1.07-0.46-2.45-0.21-3.08,0.57l-48.7,59.32c-0.64,0.78-0.29,1.78,0.78,2.24
			c0.36,0.16,0.76,0.23,1.15,0.23c0.77,0,1.51-0.28,1.93-0.8l48.7-59.32C443,494.64,442.65,493.64,441.58,493.18z"/>
		<path class="st9" d="M390.56,494.31c0.98-0.6,2.32-0.4,2.98,0.46l51.01,65.4c0.67,0.86,0.41,2.04-0.57,2.64
			c-0.33,0.2-0.71,0.31-1.08,0.34c-0.73,0.05-1.46-0.23-1.9-0.8L390,496.95C389.33,496.09,389.58,494.91,390.56,494.31z"/>
		<path class="st8" d="M443.7,563.39c-0.88-0.57-2.02-0.26-2.54,0.69l-40.11,72.75c-0.52,0.95-0.24,2.18,0.64,2.75
			c0.3,0.19,0.62,0.28,0.95,0.28c0.63,0,1.25-0.35,1.59-0.98l40.11-72.75C444.86,565.19,444.57,563.96,443.7,563.39z"/>
		<path class="st9" d="M392.48,564.48c0.98-0.6,2.32-0.4,2.98,0.46l51.01,65.4c0.67,0.86,0.41,2.04-0.57,2.64
			c-0.33,0.2-0.71,0.31-1.08,0.34c-0.73,0.05-1.46-0.23-1.9-0.8l-51.01-65.4C391.25,566.26,391.5,565.08,392.48,564.48z"/>
		<path class="st8" d="M388.56,352.63c-0.89-0.53-2.04-0.24-2.57,0.65l-40.51,67.88c-0.53,0.89-0.24,2.04,0.65,2.57
			c0.3,0.18,0.63,0.26,0.96,0.26c0.64,0,1.26-0.33,1.61-0.91l40.51-67.88C389.74,354.31,389.45,353.16,388.56,352.63z"/>
		<path class="st9" d="M346.13,352.59c0.89-0.45,2.04-0.2,2.57,0.55l40.51,57.24c0.53,0.75,0.24,1.72-0.65,2.16
			c-0.3,0.15-0.63,0.22-0.96,0.22c-0.64,0-1.26-0.27-1.61-0.77l-40.51-57.24C344.95,354.01,345.24,353.04,346.13,352.59z"/>
		<path class="st8" d="M387.05,424.1c-0.89-0.53-2.04-0.24-2.57,0.65l-40.51,67.88c-0.53,0.89-0.24,2.04,0.65,2.57
			c0.3,0.18,0.63,0.26,0.96,0.26c0.64,0,1.26-0.33,1.61-0.91l40.51-67.88C388.22,425.78,387.93,424.63,387.05,424.1z"/>
		<path class="st9" d="M344.61,424.08c0.89-0.48,2.04-0.22,2.57,0.59l40.51,62.1c0.53,0.81,0.24,1.86-0.65,2.35
			c-0.3,0.16-0.63,0.24-0.96,0.24c-0.64,0-1.26-0.3-1.61-0.83l-40.51-62.11C343.44,425.62,343.73,424.56,344.61,424.08z"/>
		<path class="st8" d="M387.05,498.23c-0.89-0.53-2.04-0.24-2.57,0.65l-40.51,67.88c-0.53,0.89-0.24,2.04,0.65,2.57
			c0.3,0.18,0.63,0.26,0.96,0.26c0.64,0,1.26-0.33,1.61-0.91l40.51-67.88C388.22,499.91,387.93,498.76,387.05,498.23z"/>
		<path class="st9" d="M344.61,498.18c0.89-0.43,2.04-0.19,2.57,0.52l40.51,54.57c0.53,0.71,0.24,1.64-0.65,2.06
			c-0.3,0.14-0.63,0.21-0.96,0.21c-0.64,0-1.26-0.26-1.61-0.73l-40.51-54.57C343.44,499.53,343.73,498.6,344.61,498.18z"/>
		<path class="st8" d="M388.56,567.19c-0.89-0.53-2.04-0.24-2.57,0.65l-40.51,67.88c-0.53,0.89-0.24,2.04,0.65,2.57
			c0.3,0.18,0.63,0.26,0.96,0.26c0.64,0,1.26-0.33,1.61-0.91l40.51-67.88C389.74,568.87,389.45,567.72,388.56,567.19z"/>
		<path class="st9" d="M346.13,567.14c0.89-0.42,2.04-0.19,2.57,0.51l40.51,53.88c0.53,0.7,0.24,1.62-0.65,2.04
			c-0.3,0.14-0.63,0.21-0.96,0.21c-0.64,0-1.26-0.26-1.61-0.72l-40.51-53.88C344.95,568.47,345.24,567.56,346.13,567.14z"/>
		<polygon class="st9" points="391.35,485.79 440.65,486.47 440.65,489.93 438.32,490.22 391.41,489.09 		"/>
		<polygon class="st9" points="391.72,555.54 438.53,559.18 438.5,554.87 391.56,551.65 		"/>
		<polygon class="st9" points="441.89,631.75 438.97,633.1 436.19,165.1 439.12,165.1 		"/>
		<polygon class="st8" points="447.07,630.71 441.89,633.1 441.89,631.75 439.12,165.1 444.29,165.1 		"/>
		<polygon class="st8" points="406.91,160.95 408.41,645.08 404.42,645.08 401.93,160.95 		"/>
		<polygon class="st8" points="401.97,161.48 404.57,645.08 400.59,645.08 396.99,161.48 		"/>
		<polygon class="st10" points="390.3,162.18 391.79,623.78 387.81,623.78 385.32,162.18 		"/>
		<polygon class="st9" points="385.36,162.68 387.96,623.78 383.98,623.78 380.38,162.68 		"/>
		<rect x="338.41" y="165.1" class="st8" width="6.81" height="474.77"/>
		<rect x="345.22" y="165.1" class="st9" width="2.41" height="474.77"/>
		<polygon class="st8" points="407.49,349.86 440.21,349.86 440.24,354.88 407.51,354.88 		"/>
		<polygon class="st8" points="345.22,349.86 398.37,349.86 398.42,354.88 345.24,354.88 		"/>
		<polygon class="st8" points="345.22,421.4 399.66,421.4 399.71,426.42 345.24,426.42 		"/>
		<polygon class="st8" points="345.22,492.95 399.66,492.95 399.71,497.97 345.24,497.97 		"/>
		<polygon class="st8" points="344.57,567.08 399.98,567.08 400.03,572.1 344.6,572.1 		"/>
		<polygon class="st8" points="407.49,421.4 440.62,421.4 440.65,426.42 407.51,426.42 		"/>
		<polygon class="st8" points="407.49,492.95 441.66,489.93 441.69,494.94 407.51,497.97 		"/>
		<polygon class="st8" points="408.17,567.08 441.56,563.11 441.59,568.13 408.19,572.1 		"/>
		<path class="st11" d="M407.27,276.54l-71.99,1.77c-1.38,0.04-2.52-1.08-2.52-2.46v-13.07c0-1.31,1.04-2.39,2.36-2.45l72.09-2.94
			L407.27,276.54z"/>
		<path class="st12" d="M448.3,261.37v13.51c0,1.42-1.17,2.55-2.58,2.53l-38.45-0.86l-0.06-19.15l38.65,1.45
			C447.22,258.9,448.3,260.01,448.3,261.37z"/>
		<polygon class="st9" points="347.63,563.15 383.42,552.87 383.42,556.62 347.49,566.96 		"/>
		<polygon class="st9" points="347.63,489.93 382.9,485.79 382.9,489.37 347.63,492.95 		"/>
	</g>
	<polygon class="st13" points="510.01,1000.64 1380.39,984.62 1563.9,1012.27 1370.71,1015.82 1461.23,1027.43 1723.57,1022.6 
		1816.58,1036.92 718.53,1057.14 631.57,1041.23 814.33,1039.34 755.29,1027.15 407.54,1032.7 280.1,1004.88 	"/>
	<g>
		<g>
			<g>
				<path class="st14" d="M1299.94,693.36c-2.46,8.91-4.5,17.75-6.18,26.28c-0.17,0.86-0.33,1.71-0.49,2.56
					c-3.66,19.26-5.55,36.87-6.51,50.12h-2.67c0.04-0.65,0.08-1.31,0.14-1.99c0.39-5.4,0.92-11.44,1.66-17.97
					c0.41-3.65,0.88-7.45,1.43-11.38c0.26-1.87,0.54-3.77,0.84-5.7c0.41-2.63,0.85-5.35,1.33-8.16c0.27-1.58,0.56-3.18,0.86-4.81
					c0.16-0.86,0.32-1.72,0.49-2.6c1.83-9.57,4.16-19.84,7.18-30.29C1298.13,689.87,1298.87,691.73,1299.94,693.36z"/>
			</g>
			<g>
				<path class="st15" d="M1461.95,576.79c-13.03,0.61-23.04,7.13-30.65,15.73c-16.42,18.59-21.59,46.98-21.59,46.98
					c-15.69-4.66-31.32-0.69-31.32-0.69c15.79,5.18,22.48,16.37,22.48,16.37c-57.81,34.79-95.1,37.89-100.94,38.17l0.56-2.44
					c0.24-0.96,0.52-1.91,0.78-2.86l1.55-5.72c0.13-0.48,0.23-0.97,0.39-1.43l0.46-1.4l0.9-2.83c2.3-7.55,5.19-14.88,8.26-22.14
					c3.15-7.23,6.86-14.21,10.99-20.93c8.46-13.32,18.89-25.44,31.13-35.47c6.1-5.04,12.63-9.56,19.51-13.53
					c3.45-1.94,6.96-3.78,10.58-5.42l2.72-1.2c0.91-0.37,1.83-0.76,2.75-1.12c1.85-0.72,3.72-1.39,5.62-1.94l-0.04-0.16
					C1396.11,574.77,1425.09,561.38,1461.95,576.79z"/>
				<path class="st16" d="M1515.34,619.87c0,0-44.8-30.96-84.04-27.34c7.61-8.61,17.62-15.12,30.64-15.74
					C1478.77,583.82,1497.23,596.84,1515.34,619.87z"/>
				<path class="st15" d="M1395.84,574.68c-7.63,2.09-14.88,5.35-21.86,9.05c-7.02,3.81-13.74,8.2-20.04,13.13
					c-12.59,9.89-23.44,21.97-32.3,35.33c-1.09,1.69-2.12,3.4-3.19,5.1l-0.79,1.28l-0.4,0.64l-0.37,0.65l-1.46,2.63l-1.47,2.63
					l-0.72,1.32l-0.67,1.34l-2.67,5.41c-3.32,7.31-6.28,14.8-8.44,22.53l-0.83,2.89l-0.41,1.44c-0.14,0.49-0.24,0.98-0.37,1.46
					l-1.37,5.85c-0.15,0.68-0.32,1.36-0.47,2.05c-4.6-17.03-19.77-84.39,20.81-110.14C1350.55,559.14,1392.14,573.34,1395.84,574.68
					z"/>
				<path class="st14" d="M1396.15,574.93c-1.91,0.55-3.77,1.22-5.62,1.94c-0.92,0.36-1.84,0.75-2.76,1.12l-2.72,1.2
					c-3.61,1.64-7.13,3.48-10.58,5.42c-6.87,3.96-13.41,8.48-19.51,13.53c-9.44,7.73-17.81,16.71-25.01,26.53
					c-2.15,2.91-4.19,5.9-6.12,8.94c-4.12,6.73-7.84,13.71-10.98,20.94c-3.07,7.25-5.97,14.58-8.26,22.13l-0.91,2.83l-0.46,1.4
					c-0.15,0.47-0.25,0.96-0.39,1.43l-0.65,2.43l-0.89,3.29c-0.26,0.95-0.53,1.91-0.78,2.86l-0.56,2.44
					c-0.07-0.09-0.13-0.19-0.19-0.28c-1.07-1.63-1.57-3.06-1.7-3.5c-0.03-0.06-0.03-0.09-0.04-0.12c-0.02-0.02-0.02-0.03-0.02-0.03
					c0.15-0.69,0.31-1.37,0.47-2.05l1.37-5.85c0.13-0.49,0.23-0.98,0.36-1.47l0.41-1.44l0.84-2.88c2.15-7.74,5.11-15.23,8.43-22.54
					l2.67-5.4l0.67-1.34l0.72-1.32l1.48-2.63l1.47-2.64l0.36-0.64l0.4-0.64l0.79-1.28c1.07-1.7,2.1-3.41,3.19-5.1
					c8.86-13.37,19.71-25.44,32.3-35.33c6.3-4.94,13.02-9.32,20.04-13.14c6.98-3.7,14.23-6.95,21.87-9.04
					c0.07-0.02,0.15-0.05,0.22-0.07L1396.15,574.93z"/>
			</g>
		</g>
		<g>
			<path class="st17" d="M1355.01,772.31v163.13c0,22.53-18.26,40.78-40.78,40.78h-29.53c22.53,0,40.78-18.26,40.78-40.78V772.31
				H1355.01z"/>
			<path class="st18" d="M1325.47,772.31v163.13c0,22.53-18.26,40.78-40.78,40.78h-58.57c-22.53,0-40.78-18.26-40.78-40.78V772.31
				H1325.47z"/>
		</g>
		<g>
			<path class="st14" d="M1287.43,757.56c-0.97,3.75-2,7.45-3.1,11.09c-0.36,1.22-0.72,2.44-1.1,3.66h-5.02
				c3.65-11.65,6.95-24.18,9.18-36.79c1.25-7.02,2.16-14.06,2.63-20.98c0.78-11.58,0.31-22.81-1.99-33.01
				c-0.34-1.53-0.74-3.03-1.17-4.52c-3.27-11.28-9.04-21.1-18.16-28.44c-29.52-23.78-56.75-0.3-57.02-0.06
				c-0.99,0.86-2.46,0.77-3.32-0.2c-0.86-0.97-0.77-2.46,0.2-3.32c0.3-0.27,30.5-26.31,63.07-0.06
				c9.39,7.56,15.97,17.99,19.71,31.05c0.44,1.49,0.83,3,1.16,4.55c0.63,2.71,1.13,5.52,1.52,8.45
				C1296.56,707.81,1294.37,730.84,1287.43,757.56z"/>
		</g>
		<g>
			<path class="st15" d="M1280.79,834.76c-4.75,26.93-40.65,54.9-40.65,54.9l-19-15.83l6.34,24.8
				c-25.86,15.83-70.73,12.66-70.73,12.66c27.97-97.11,83.39-140.39,83.39-140.39C1289.23,775.12,1285.54,807.85,1280.79,834.76z"/>
			<path class="st14" d="M1240.15,770.9c0,0-55.42,43.27-83.39,140.39c-51.73-80.75,10.55-154.12,37.48-161.5
				C1221.14,742.4,1240.15,770.9,1240.15,770.9z"/>
		</g>
		<g>
			<path class="st16" d="M1350.52,702.42c-0.95,0.86-2.44,0.8-3.32-0.16c-0.22-0.27-20.34-21.95-46.18-22.37
				c-1.77-0.03-3.58,0.03-5.41,0.22c-1.03,0.11-2.06,0.25-3.1,0.42c-1.06,0.19-2.13,0.41-3.21,0.67c-0.42,0.11-0.84,0.22-1.27,0.33
				c-26.45,7.34-48.71,37.83-66.34,90.78h-4.93c18.3-55.52,41.81-87.52,70.1-95.3c0.45-0.12,0.91-0.25,1.36-0.36
				c1.05-0.27,2.08-0.48,3.13-0.67c1.74-0.33,3.47-0.55,5.16-0.66c1.83-0.16,3.64-0.2,5.41-0.16c27.33,0.75,47.76,22.84,48.74,23.93
				C1351.55,700.06,1351.49,701.54,1350.52,702.42z"/>
		</g>
		<g>
			<path class="st15" d="M1238.99,651.24c-10.65-6.03-18.1-8.72-19.76-9.3c-37.84,18.14-78.5,66.27-104.24,100.88
				c-20.54,27.65-49.7,58.88-63.65,73.42c0.03,0.07,0.03,0.11,0.03,0.11s44.61,3.68,55.65-23.21
				c11.04-26.89,10.92-34.88,22.55-33.65c11.63,1.23,1.17,45.18-9.41,51.8c0,0,45.16,2.46,55.51-33.67
				c10.37-36.13,3.49-48.38,15.12-50.77c11.63-2.41,14.4,53.01,1.57,69.69c0,0,49.49-14.99,64.08-61.88
				C1271.01,687.77,1251.12,658.11,1238.99,651.24z M1228.84,743.02c-16.08-2.71-2.6-37.44-7.88-50.31c-0.33-0.79-0.62-1.55-0.9-2.3
				c-4.55-12.59,14.3-20.13,19.29-7.73c0.16,0.39,0.3,0.79,0.44,1.2C1244.74,698.78,1244.92,745.71,1228.84,743.02z"/>
			<path class="st14" d="M1218.88,641.84c0,0-7.03-65.29-80.51-50.69c-1.03,0.21-1.32,1.57-0.45,2.18
				c8.32,5.78,35.51,25.82,27.14,34.79c-9.82,10.56-50.21-27.38-74.47-9.65c-24.28,17.74-29.4,37.4-29.4,37.4s70.88-2.9,67.54,12.38
				c-3.35,15.28-42.75-0.68-60.03,9.4c-17.28,10.09-25.08,17.88-26.67,44.36c0,0,37.39-8.99,49.82,1.08
				c12.44,10.05-6.57,9.22-22.76,12.91c-16.19,3.68-27.6,24.53-27.64,36.54c-0.02,11.61,9.26,41.7,9.89,43.71
				c13.95-14.54,43.1-45.77,63.65-73.42c25.74-34.61,66.4-82.75,104.24-100.88C1219,641.88,1218.88,641.84,1218.88,641.84z
				 M1102.37,644.07c-4.7,2.43-11.61,2.52-14.97-0.22c-4.14-3.36,3.14-7.76,9.35-10.66C1103.9,629.84,1109.36,640.44,1102.37,644.07
				z"/>
		</g>
		<g>
			<path class="st14" d="M1276.13,761.14c-8.7,45.78,26.08,80.41,26.08,80.41c-3.3-19.7,23.74-64.88,32.4-57.68
				c8.67,7.19-2.55,14.39-9.98,49.27c-7.44,34.88,31.49,52.96,31.49,52.96c-5.92-10.26,4.93-51.74,15.22-47.59
				c10.29,4.15,6.63,10.8,3.88,38.24c-2.75,27.45,36.26,44.26,36.26,44.26s0.02-0.02,0.07-0.07c-5.2-18.4-15.69-57.56-20.57-89.89
				c-6.13-40.47-18.71-98.93-42.32-131c-1.65-0.25-9.09-1.32-20.7-1.02C1314.73,699.39,1284.84,715.36,1276.13,761.14z
				 M1312.72,726.03c0.3-0.28,0.6-0.55,0.9-0.81c9.72-8.16,22.15,6.56,12.72,15.08c-0.56,0.5-1.15,1.01-1.78,1.52
				c-10.16,8.43-14.36,43.53-29.04,38.62C1280.85,775.53,1301.94,736.3,1312.72,726.03z"/>
			<path class="st16" d="M1348.66,700.07c23.61,32.07,36.19,90.53,42.32,131c4.88,32.32,15.37,71.49,20.57,89.89
				c1.42-1.4,22.61-22.47,27.77-32.2c5.33-10.07,5.07-32.63-6.86-42.93c-11.92-10.31-28.21-18.09-13.31-20.96
				c14.91-2.89,42.22,21.32,42.22,21.32c10.49-22.89,7.43-32.9-2.55-49.06c-9.98-16.15-50.1-20.35-46.09-34.65
				c4.02-14.29,62.1,19.75,62.1,19.75s4.48-18.75-7.95-44.44c-12.42-25.68-63.17-11.9-66.69-25.14c-3-11.25,28.71-15.91,38.26-17.04
				c1-0.12,1.36-1.39,0.59-2.02c-55.04-45-90.05,6.56-90.05,6.56S1348.88,700.12,1348.66,700.07z M1455.16,747.35
				c3.91,5.2,8.04,12.13,3.08,13.1c-4.03,0.79-9.78-2.36-12.64-6.49C1441.36,747.81,1450.66,741.37,1455.16,747.35z"/>
		</g>
	</g>
	<g>
		<path class="st19" d="M945.9,988.79c0,5.82-2.36,11.08-6.18,14.9c-3.82,3.82-9.08,6.18-14.9,6.18H350.67
			c-11.64,0-21.07-9.44-21.07-21.07c0-5.83,2.36-11.09,6.18-14.91c3.8-3.82,9.08-6.18,14.9-6.18h574.16
			C936.47,967.71,945.9,977.15,945.9,988.79z"/>
		<path class="st20" d="M1652.09,988.79c0,5.82-2.36,11.08-6.18,14.9c-3.8,3.82-9.08,6.18-14.9,6.18H924.83
			c5.82,0,11.08-2.36,14.9-6.18c3.82-3.82,6.18-9.08,6.18-14.9c0-11.65-9.44-21.09-21.07-21.09h706.19
			C1642.66,967.71,1652.09,977.15,1652.09,988.79z"/>
		<path class="st20" d="M1189.12,967.71H364.18c-11.29,0-20.76-8.48-22-19.7l-65.91-598c-1.45-13.11,8.81-24.56,21.99-24.56h824.96
			c11.28,0,20.75,8.49,21.99,19.71l65.91,598.01C1212.56,956.27,1202.3,967.71,1189.12,967.71z"/>
		<path class="st21" d="M1170.14,942.53H379.41c-7.12,0-13.09-5.35-13.86-12.42l-45.68-414.5L303,362.67
			c-0.72-6.43,4.32-12.03,10.77-12.03h794.2c7.12,0,13.09,5.35,13.86,12.42l25.53,231.61L1184,927.05
			C1184.91,935.3,1178.45,942.53,1170.14,942.53z"/>
		<path class="st19" d="M364.18,967.71h-22.7c-11.29,0-20.75-8.48-22-19.69l-65.91-598c-1.44-13.11,8.81-24.56,21.99-24.56h22.7
			c-13.17,0-23.43,11.45-21.99,24.56l65.91,598C343.42,959.23,352.88,967.71,364.18,967.71z"/>
		<path class="st19" d="M1200.59,967.71h185.74c0,4.31-1.75,8.19-4.56,11.01c-2.82,2.81-6.71,4.56-11.01,4.56h-154.6
			C1207.56,983.28,1200.59,976.31,1200.59,967.71z"/>
		<path class="st22" d="M1623.89,967.71H368.63c0-4.37,3.55-7.93,7.93-7.93h1239.41c2.19,0,4.17,0.89,5.61,2.32
			C1623.01,963.55,1623.89,965.52,1623.89,967.71z"/>
		<path class="st20" d="M530.74,987.67v4.17c0,2.43-1.96,4.39-4.39,4.39h-40.93c-2.43,0-4.39-1.96-4.39-4.39v-4.17
			c0-2.43,1.96-4.39,4.39-4.39h40.93C528.78,983.28,530.74,985.24,530.74,987.67z"/>
		<path class="st20" d="M587.32,987.67v4.17c0,2.43-1.96,4.39-4.39,4.39h-40.93c-2.43,0-4.39-1.96-4.39-4.39v-4.17
			c0-2.43,1.96-4.39,4.39-4.39h40.93C585.36,983.28,587.32,985.24,587.32,987.67z"/>
		
			<ellipse transform="matrix(0.9229 -0.3851 0.3851 0.9229 -353.1494 215.9325)" class="st20" cx="362.59" cy="989.75" rx="7.24" ry="7.24"/>
		<path class="st19" d="M367.17,989.75c0,2.53-2.05,4.58-4.58,4.58c-2.53,0-4.58-2.05-4.58-4.58s2.05-4.58,4.58-4.58
			C365.12,985.17,367.17,987.22,367.17,989.75z"/>
	</g>
	<path class="st23" d="M1055.76,831.81c-0.29,0.77-0.63,1.5-1.02,2.18L1055.76,831.81z"/>
	<g>
		<path class="st20" d="M219.1,937.7c-3.4-2.32-6.56-4.52-9.45-6.56c-14.38-10.16-22.33-16.59-22.33-16.59
			c-6.76-33.19,3.36-76.85,3.36-76.85s14.4-42.44,37.63-67.09c0,0,10.15-1.28,27.72-2.33c3.54-0.21,7.38-0.42,11.49-0.6
			c-9.05,13.97-24.2,40.83-37.6,81.2C220.04,890.26,218.76,921.06,219.1,937.7z"/>
		<path class="st24" d="M658.15,1049.56c-2.92-18.34-4.44-45.88,3.18-77.8c3.05-9.2,6.59-17.64,10.36-25.35
			c-1.26,17.86,0.02,33.24,1.88,44.9c22.36-5.89,39.18-13.7,51.7-21.57c4.12-2.59,7.83-5.61,11.11-8.95
			c6.67,25.31-3.64,52.83-26.53,67.21C697.33,1035.86,680.51,1043.67,658.15,1049.56z"/>
		<path class="st25" d="M673.57,991.3c-1.86-11.66-3.14-27.04-1.88-44.9c9-18.39,19.37-32.55,27.93-42.45
			c15.9,16.79,26.08,32.29,32.57,45.57c1.79,3.67,3.19,7.43,4.18,11.25c-3.28,3.35-7,6.36-11.11,8.95
			C712.75,977.6,695.93,985.41,673.57,991.3z"/>
		<path class="st26" d="M332.63,1002.54c-48.32-22.6-87.94-47.36-113.53-64.84c-0.33-16.65,0.95-47.45,10.83-88.82
			c2.82-8.5,5.72-16.4,8.62-23.71c-3.71,24.17-4.27,42.66-4.03,54.27c25.6,17.48,65.21,42.24,113.53,64.84
			c56.01,26.19,123.71,49.49,194.83,55.2c47.5,3.81,84.94,1.32,114.31-4.44c-2.62,21.97-1.22,40.82,0.96,54.52
			c-31.45,8.28-73.87,12.75-130.69,8.18C456.34,1052.04,388.64,1028.74,332.63,1002.54z"/>
		<path class="st27" d="M348.05,944.28c-48.32-22.6-87.94-47.36-113.53-64.84c-0.24-11.61,0.32-30.1,4.03-54.27
			c10.89-27.4,21.83-46.46,28.98-57.49c30.97-1.37,77.68-1.54,130.66,4.71c61.41,7.25,131.22,23.12,194.67,55.74
			c41.28,21.22,71.29,42.5,93.09,62.42c4.97,4.54,9.52,9.02,13.68,13.4c-8.56,9.9-18.93,24.05-27.93,42.45
			c-3.77,7.71-7.3,16.16-10.36,25.35c-1.92,8.06-3.26,15.85-4.15,23.28c-29.37,5.76-66.81,8.26-114.31,4.44
			C471.76,993.78,404.06,970.48,348.05,944.28z"/>
		<path class="st25" d="M256.03,768.29l9.64-132.91l37.48,10.68l95.02,126.35C338.17,765.32,286.18,766.47,256.03,768.29z"/>
		<path class="st28" d="M257.63,746.31l-1.59,21.98c30.15-1.81,82.13-2.97,142.15,4.11l-16.71-22.22
			C331.24,744.74,287.17,744.98,257.63,746.31z"/>
		<path class="st25" d="M209.64,931.14l-61.84,118.04l37.48,10.68l147.34-57.32C277.89,976.94,234.32,948.57,209.64,931.14z"/>
		<path class="st28" d="M305.68,1013.03c-45.27-21.77-82.36-45.07-106.63-61.67l10.59-20.21c24.67,17.43,68.24,45.8,122.98,71.4
			L305.68,1013.03z"/>
		
			<ellipse transform="matrix(0.2739 -0.9617 0.9617 0.2739 -631.915 882.8473)" class="st25" cx="268.76" cy="859.94" rx="19.37" ry="114.67"/>
		
			<ellipse transform="matrix(0.7071 -0.7071 0.7071 0.7071 -508.5214 655.3001)" class="st26" cx="536.76" cy="941.49" rx="68.24" ry="68.24"/>
		
			<ellipse transform="matrix(0.7071 -0.7071 0.7071 0.7071 -504.3909 657.6301)" class="st20" cx="541.63" cy="937.67" rx="68.24" ry="68.24"/>
		<path class="st29" d="M528.41,984.08c-25.63-7.3-40.49-34-33.19-59.63c0.6-2.1,1.32-4.13,2.18-6.07
			c-3.45,23.57,11,46.62,34.53,53.32c23.53,6.7,47.96-5.27,57.45-27.12c-0.3,2.1-0.75,4.21-1.35,6.3
			C580.74,976.52,554.04,991.38,528.41,984.08z"/>
		<path class="st30" d="M531.94,971.7c-23.53-6.7-37.98-29.76-34.53-53.32c9.48-21.85,33.91-33.82,57.45-27.12
			c23.53,6.7,37.98,29.76,34.54,53.32C579.9,966.43,555.47,978.41,531.94,971.7z"/>
		<g>
			<path class="st31" d="M529.23,904.24c0.58-2.04,2.18-3.74,4.37-4.35c6.65-1.86,13.69-1.83,20.35,0.07
				c8.61,2.45,16.07,7.91,21.01,15.37c1.92,2.91,1.13,6.82-1.78,8.74c-2.91,1.92-6.82,1.13-8.74-1.78
				c-3.28-4.95-8.23-8.57-13.95-10.2c-4.43-1.26-9.1-1.28-13.51-0.05c-3.36,0.94-6.84-1.02-7.77-4.38
				C528.9,906.49,528.92,905.32,529.23,904.24z"/>
		</g>
		<polygon class="st28" points="414.36,774.49 313.1,639.68 271.71,627.89 265.67,635.37 303.16,646.05 398.18,772.4 		"/>
		<polygon class="st28" points="332.63,1002.55 347.58,1009.34 190.38,1068.16 148.7,1056.29 147.81,1049.19 185.29,1059.86 		"/>
	</g>
	<g>
		<g>
			<path class="st32" d="M560.85,666.78l47.65-151.97h39.64l18.41,151.97h17.18l3.89,32.13h-17.18l4.94,40.8h-35.68l-4.94-40.8
				h-70.03L560.85,666.78z M630.88,666.78l-10.24-84.5l-26.43,84.5H630.88z"/>
			<path class="st32" d="M822.47,666.78l47.65-151.97h39.64l18.41,151.97h17.18l3.89,32.13h-17.18l4.94,40.8h-35.68l-4.94-40.8
				h-70.03L822.47,666.78z M892.5,666.78l-10.24-84.5l-26.43,84.5H892.5z"/>
		</g>
		<g>
			<path class="st31" d="M549.77,660.5l47.65-151.97h39.64l18.41,151.97h17.18l3.89,32.13h-17.18l4.94,40.8h-35.68l-4.94-40.8
				h-70.03L549.77,660.5z M619.8,660.5L609.56,576l-26.43,84.5H619.8z"/>
			<path class="st31" d="M811.39,660.5l47.65-151.97h39.64l18.41,151.97h17.18l3.89,32.13h-17.18l4.94,40.8h-35.68l-4.94-40.8
				h-70.03L811.39,660.5z M881.42,660.5L871.18,576l-26.43,84.5H881.42z"/>
		</g>
		<g>
			<path class="st25" d="M696.35,793.65h-18.67l1.2,11.74h20.85l0.94,9.17H668.3l-5.05-49.46h31.31l0.94,9.17h-19.8l1.05,10.27
				h18.67L696.35,793.65z"/>
			<path class="st25" d="M703.52,765.76c3.63-0.59,9.08-1.03,15.18-1.03c7.53,0,12.91,1.1,16.81,3.89c3.25,2.35,5.26,5.8,5.72,10.35
				c0.64,6.31-3.51,10.64-7.71,12.18l0.02,0.22c3.68,1.39,5.97,4.7,7.72,9.25c2.15,5.58,4.39,12.03,5.56,13.94h-11.74
				c-0.97-1.39-2.59-5.43-4.71-11.52c-1.98-6.16-4.34-7.85-9.01-7.93h-3.46l1.98,19.45H708.5L703.52,765.76z M717.05,787.04h4.52
				c5.72,0,8.82-2.79,8.38-7.12c-0.46-4.55-3.86-6.82-9.13-6.9c-2.79,0-4.34,0.22-5.16,0.37L717.05,787.04z"/>
			<path class="st25" d="M748.15,765.76c3.63-0.59,9.08-1.03,15.18-1.03c7.53,0,12.91,1.1,16.81,3.89c3.25,2.35,5.26,5.8,5.72,10.35
				c0.64,6.31-3.51,10.64-7.71,12.18l0.02,0.22c3.68,1.39,5.97,4.7,7.72,9.25c2.15,5.58,4.39,12.03,5.56,13.94H779.7
				c-0.97-1.39-2.59-5.43-4.71-11.52c-1.98-6.16-4.34-7.85-9.01-7.93h-3.46l1.98,19.45h-11.37L748.15,765.76z M761.69,787.04h4.52
				c5.72,0,8.82-2.79,8.38-7.12c-0.46-4.55-3.86-6.82-9.13-6.9c-2.79,0-4.34,0.22-5.16,0.37L761.69,787.04z"/>
			<path class="st25" d="M841.34,789.32c1.66,16.22-7.43,26.05-22.26,26.05c-15.05,0-24.99-11.08-26.43-25.17
				c-1.51-14.82,7.07-25.9,22.05-25.9C830.27,764.29,839.94,775.67,841.34,789.32z M804.74,789.98c0.99,9.69,6.35,16.51,14.03,16.51
				c7.75,0,11.46-7.19,10.48-16.8c-0.91-8.88-6.05-16.51-13.95-16.51C807.55,773.17,803.76,780.36,804.74,789.98z"/>
			<path class="st25" d="M846.46,765.76c3.63-0.59,9.08-1.03,15.18-1.03c7.53,0,12.91,1.1,16.81,3.89c3.25,2.35,5.26,5.8,5.72,10.35
				c0.64,6.31-3.51,10.64-7.71,12.18l0.02,0.22c3.68,1.39,5.97,4.7,7.72,9.25c2.15,5.58,4.39,12.03,5.56,13.94h-11.74
				c-0.97-1.39-2.59-5.43-4.71-11.52c-1.98-6.16-4.34-7.85-9.01-7.93h-3.46l1.98,19.45h-11.37L846.46,765.76z M860,787.04h4.52
				c5.72,0,8.82-2.79,8.38-7.12c-0.46-4.55-3.86-6.82-9.13-6.9c-2.79,0-4.34,0.22-5.16,0.37L860,787.04z"/>
		</g>
	</g>
	<g>
		<g>
			<polygon class="st33" points="167.89,72.24 263.2,99.27 261,231.9 168.04,214.39 			"/>
			<polygon class="st34" points="103.43,219.27 202.07,238.19 261,231.9 168.04,214.39 			"/>
			<polygon class="st12" points="263.1,105.48 181.9,82.05 179.83,206.94 261.17,221.89 			"/>
			<polygon class="st11" points="177.62,83.68 181.9,82.05 179.83,206.94 175.55,208.57 			"/>
			<polygon class="st11" points="256.89,223.52 261.17,221.89 179.83,206.94 175.55,208.57 			"/>
			<polygon class="st34" points="168.05,214.4 152.02,215.6 127.52,217.46 103.65,219.25 103.42,219.27 103.82,195.2 104.22,171.55 
				104.62,147.24 105,123.58 105.41,99.27 105.66,83.75 123.3,80.49 150.91,75.37 167.89,72.23 167.9,80.79 167.93,104.64 
				167.96,127.86 167.98,151.71 168,174.94 168.03,198.79 			"/>
			<g>
				<polygon class="st12" points="150.91,75.37 105,123.58 105.41,99.27 123.3,80.49 				"/>
				<polygon class="st12" points="167.93,104.64 104.22,171.55 104.62,147.24 167.9,80.79 				"/>
				<polygon class="st12" points="167.98,151.71 103.65,219.25 103.42,219.27 103.82,195.2 167.96,127.86 				"/>
				<polygon class="st12" points="168.03,198.79 152.02,215.6 127.52,217.46 168,174.94 				"/>
			</g>
		</g>
		<g>
			<g>
				<g>
					<g>
						<path class="st9" d="M248.49,192.2c-0.16,0-0.33-0.01-0.5-0.03c-2.22-0.27-3.79-2.29-3.52-4.51l9.49-77.24
							c0.21-1.7,1.47-3.09,3.15-3.46c1.68-0.37,3.4,0.36,4.3,1.82l40.89,66.21l28.45-79.68c0.54-1.5,1.9-2.54,3.49-2.67
							c1.59-0.12,3.1,0.69,3.86,2.09l38,69.35l33.04-81.23c0.59-1.44,1.95-2.42,3.5-2.51c1.55-0.1,3.02,0.71,3.78,2.07l38.61,69.46
							l14.3-74.57c0.29-1.53,1.45-2.76,2.96-3.15c1.51-0.39,3.12,0.13,4.12,1.33l55,66.05l11.96-73.89
							c0.25-1.56,1.39-2.83,2.92-3.25c1.53-0.42,3.15,0.09,4.17,1.3l59.65,71.15l13.69-84.82c0.26-1.61,1.47-2.91,3.05-3.29
							c1.59-0.38,3.25,0.24,4.21,1.56l56.03,77.23l20.47-90.84c0.34-1.51,1.52-2.7,3.03-3.05c1.51-0.35,3.09,0.19,4.06,1.4
							l64.41,80.01l23.46-91.86c0.38-1.49,1.58-2.64,3.09-2.96c1.51-0.31,3.07,0.26,4.02,1.48l65.81,84.61L911.81,3.83
							c0.63-1.78,2.41-2.88,4.29-2.66c1.88,0.22,3.35,1.72,3.54,3.6l12.71,98.95c-0.44,1.38-2.98,5.2-4.45,5.96
							c-1.48,0.76-1.06,1.23-2.31,0.13L896.16,87.7c-1.68-1.47-1.85-4.02-0.38-5.7c1.47-1.68,4.02-1.85,5.7-0.38l19.84,17.35
							l-7.87-75.59l-32.86,92.58c-0.49,1.39-1.71,2.4-3.17,2.64c-1.46,0.24-2.93-0.34-3.83-1.51l-65.27-83.93l-23.42,91.69
							c-0.38,1.48-1.56,2.62-3.06,2.95c-1.49,0.32-3.05-0.22-4.01-1.42l-64.22-79.78l-20.6,91.4c-0.35,1.55-1.57,2.75-3.13,3.07
							c-1.55,0.32-3.15-0.3-4.09-1.59L630.23,62.9l-13.55,83.94c-0.25,1.56-1.39,2.83-2.92,3.25c-1.53,0.42-3.15-0.09-4.17-1.3
							l-59.65-71.15l-11.96,73.92c-0.25,1.56-1.4,2.84-2.92,3.25c-1.53,0.42-3.16-0.1-4.17-1.31l-55.21-66.3l-14.79,77.11
							c-0.32,1.67-1.65,2.96-3.33,3.23c-1.67,0.27-3.35-0.54-4.17-2.03l-39.92-71.81L380.39,175c-0.59,1.44-1.95,2.42-3.51,2.51
							c-1.56,0.08-3.03-0.73-3.78-2.09l-37.76-68.92l-28.25,79.12c-0.52,1.46-1.84,2.5-3.38,2.66c-1.55,0.16-3.05-0.57-3.86-1.9
							l-39.26-63.57l-8.09,65.82C252.24,190.69,250.5,192.2,248.49,192.2z"/>
					</g>
				</g>
				<g>
					<g>
						<polygon class="st10" points="245.36,195.79 244.35,187.29 931.72,105.84 928.89,114.8 						"/>
					</g>
				</g>
				<g>
					<g>
						<polygon class="st9" points="246.28,192.84 245.27,184.34 932.64,102.89 929.81,111.85 						"/>
					</g>
				</g>
				<g>
					<g>
						<polygon class="st9" points="189.92,184.4 188.59,174.11 905.12,82.79 901.41,92.39 						"/>
					</g>
				</g>
				<g>
					<g>
						<path class="st8" d="M192.56,180.17c-0.44,0-0.9-0.08-1.33-0.26c-1.83-0.74-2.71-2.82-1.97-4.64l24.4-60.45
							c0.47-1.17,1.52-2,2.76-2.19c1.24-0.19,2.49,0.28,3.29,1.25l40.12,48.55l36.37-60.55c0.66-1.1,1.87-1.76,3.15-1.73
							c1.28,0.03,2.45,0.76,3.06,1.89l27.11,50.97l45.46-65.48c0.68-0.98,1.8-1.57,2.99-1.53c1.19,0.02,2.29,0.63,2.94,1.63
							l35.51,54.9l53-68.26c0.83-1.07,2.2-1.58,3.53-1.31c1.33,0.27,2.39,1.27,2.74,2.58l14.89,56.01l53.97-70.02
							c0.79-1.02,2.07-1.54,3.34-1.35c1.28,0.19,2.35,1.05,2.81,2.25l22.63,58.99l50.77-71.07c0.75-1.04,1.99-1.61,3.27-1.47
							c1.28,0.13,2.38,0.94,2.9,2.11l26.23,59.77l52.8-74.6c0.71-1.01,1.9-1.58,3.14-1.5c1.23,0.08,2.34,0.79,2.92,1.88l33,61.97
							l55.95-77.1c0.72-0.99,1.91-1.54,3.12-1.46c1.22,0.08,2.32,0.79,2.9,1.87l33.57,62.31l68.72-81.27
							c1.06-1.25,2.83-1.62,4.3-0.89c1.47,0.73,2.26,2.36,1.9,3.96l-17.71,80.76c-0.42,1.92-2.32,3.14-4.25,2.72
							c-1.92-0.42-3.14-2.32-2.72-4.25l14.63-66.71l-62.82,74.28c-0.76,0.9-1.92,1.36-3.09,1.24c-1.17-0.12-2.21-0.82-2.77-1.86
							L806.74,30.2l-55.97,77.13c-0.72,1-1.91,1.55-3.13,1.46c-1.23-0.08-2.32-0.8-2.9-1.88l-32.97-61.9l-53.1,75.03
							c-0.74,1.05-1.99,1.62-3.27,1.49c-1.28-0.13-2.39-0.94-2.91-2.11l-26.25-59.8l-50.98,71.37c-0.76,1.07-2.05,1.63-3.35,1.46
							c-1.3-0.17-2.41-1.03-2.88-2.26l-22.73-59.25l-54.51,70.71c-0.83,1.08-2.2,1.59-3.53,1.32c-1.33-0.27-2.39-1.27-2.74-2.58
							l-14.9-56.04l-51.66,66.54c-0.71,0.91-1.81,1.44-2.97,1.38c-1.15-0.05-2.21-0.66-2.84-1.63L377.8,95.98l-45.76,65.91
							c-0.71,1.02-1.9,1.6-3.14,1.53c-1.24-0.07-2.35-0.79-2.94-1.89l-26.9-50.57l-35.72,59.47c-0.6,0.99-1.64,1.63-2.79,1.72
							c-1.15,0.09-2.28-0.39-3.02-1.28l-39.52-47.82l-22.16,54.9C195.3,179.33,193.97,180.17,192.56,180.17z"/>
					</g>
				</g>
				<g>
					<g>
						<polygon class="st9" points="210.15,123.48 208.59,113.11 921.82,2 920.38,10.9 						"/>
					</g>
				</g>
				<g>
					<g>
						<polygon class="st8" points="209.93,121.56 208.59,113.11 922.13,0 920.69,8.89 						"/>
					</g>
				</g>
				<g>
					<g>
						<polygon class="st8" points="189.67,182.43 188.59,174.11 905.79,80.85 902.28,89.94 						"/>
					</g>
				</g>
				<polygon class="st9" points="905.79,80.85 932.35,103.72 929.52,112.67 902.28,89.94 				"/>
				<polygon class="st10" points="901.41,92.39 925.29,112.67 929.52,112.67 902.28,89.94 				"/>
				<polygon class="st9" points="922.13,0 934.08,98.49 932.35,103.72 920.38,10.9 920.69,8.89 				"/>
				<polygon class="st8" points="844.04,99.8 861.49,119.94 869.46,119 852.69,98.68 				"/>
				<polygon class="st10" points="852.69,98.68 854.86,98.4 871.9,118.71 869.46,119 				"/>
				<polygon class="st8" points="193.45,183.8 246.28,192.84 255.79,191.72 207.54,181.98 				"/>
				<polygon class="st10" points="207.54,181.98 212.52,181.33 259.56,191.27 255.79,191.72 				"/>
				<polygon class="st8" points="520.62,141.56 534.84,158.65 543.96,157.57 530.39,140.29 				"/>
				<polygon class="st10" points="530.39,140.29 533.03,139.95 546.69,157.25 543.96,157.57 				"/>
				<polygon class="st8" points="659.97,123.56 680.4,141.4 691.85,140.05 673.11,121.87 				"/>
				<polygon class="st10" points="673.11,121.87 674.46,121.69 693.1,139.9 691.85,140.05 				"/>
			</g>
			<polygon class="st8" points="444.31,169.38 414.86,155.21 401.93,156.88 431.44,170.9 			"/>
			<polygon class="st10" points="418.74,154.71 448.29,168.91 444.31,169.38 414.86,155.21 			"/>
		</g>
		<g>
			<polygon class="st35" points="270.64,107.35 270.64,260.39 349.03,254.17 365.83,90.55 			"/>
			<polygon class="st34" points="427.42,112.32 365.83,90.55 349.03,254.17 408.13,260.39 			"/>
			<path class="st12" d="M397.49,73.21v11.65l-138.13,24.62v-8.2c0-2.25,1.62-4.18,3.84-4.57L397.49,73.21z"/>
			<polygon class="st11" points="397.49,84.86 450.5,105.81 427.42,112.32 365.83,90.55 			"/>
			<path class="st12" d="M450.51,99.95v5.87l-53.02-20.96V73.21l48.74,20.33C448.82,94.62,450.51,97.14,450.51,99.95z"/>
			<polygon class="st34" points="270.64,260.39 339.39,261.52 408.13,260.39 349.03,254.17 			"/>
			<path class="st33" d="M418.35,130.49l-8.62,56.11c-0.55,3.56-2.94,6.38-6.03,7.64c2.37-1.46,4.12-3.91,4.58-6.9l8.62-56.11
				c0.76-4.92-2.25-9.63-7.03-11l-26.01-7.51c-2.26-0.65-4.52-0.46-6.5,0.36c2.28-1.42,5.13-1.91,7.95-1.1l26.01,7.51
				C416.1,120.86,419.11,125.57,418.35,130.49z"/>
			<path class="st36" d="M416.9,131.23l-8.62,56.11c-0.46,2.99-2.21,5.44-4.58,6.9c-1.8,0.74-3.83,0.96-5.88,0.5l-23.39-5.16
				c-2.59-0.56-4.74-2.12-6.1-4.18c-1.24-1.85-1.86-4.12-1.61-6.48l6.01-58.45c0.33-3.21,2.14-5.86,4.63-7.4
				c1.98-0.82,4.24-1.01,6.5-0.36l26.01,7.51c2.99,0.86,5.28,3.03,6.39,5.73C416.94,127.57,417.19,129.39,416.9,131.23z"/>
			<polygon class="st11" points="259.35,109.48 270.64,112.32 270.64,107.35 			"/>
			<path class="st37" d="M416.9,131.23l-8.62,56.11c-0.46,2.99-2.21,5.44-4.58,6.9c-1.8,0.74-3.83,0.96-5.88,0.5l-23.39-5.16
				c-2.59-0.56-4.74-2.12-6.1-4.18l47.93-59.45C416.94,127.57,417.19,129.39,416.9,131.23z"/>
			<path class="st34" d="M282.59,187.87l-0.69,0.05c-3.11,0.21-5.76-2.26-5.76-5.39v-53.98c0-2.67,1.94-4.93,4.57-5.34l63.81-9.84
				c0.58-0.09,1.14-0.08,1.67,0.01l-63.72,9.83c-2.63,0.41-4.57,2.67-4.57,5.34v53.98C277.91,185.29,279.96,187.53,282.59,187.87z"
				/>
			<path class="st36" d="M350.74,119.08l-4.32,59.77c-0.2,2.68-2.33,4.82-5.02,5l-58.8,4.02c-1.4-0.18-2.63-0.89-3.48-1.94
				c-0.75-0.92-1.2-2.1-1.2-3.4v-53.98c0-2.67,1.94-4.93,4.57-5.34l63.72-9.83c1.13,0.17,2.15,0.7,2.94,1.47
				C350.21,115.9,350.86,117.41,350.74,119.08z"/>
			<path class="st37" d="M350.74,119.08l-4.32,59.77c-0.2,2.68-2.33,4.82-5.02,5l-58.8,4.02c-1.4-0.18-2.63-0.89-3.48-1.94
				l70.03-71.09C350.21,115.9,350.86,117.41,350.74,119.08z"/>
			<path class="st35" d="M353.04,131.68"/>
		</g>
		<g>
			<polygon class="st8" points="798.62,86.08 798.62,108.42 788.51,134.62 786.05,140.99 783.71,141.15 767.28,142.31 
				746.74,143.73 730.31,144.89 719.51,145.64 714.47,139.94 705.93,130.31 695.29,118.27 694.39,117.26 694.39,97.25 695.21,97.16 
				712.13,95.36 733.28,93.08 750.2,91.27 771.35,89 788.28,87.18 			"/>
			<polygon class="st10" points="719.51,145.64 760.46,164.25 819.56,159.6 786.06,140.99 			"/>
			<polygon class="st9" points="798.62,108.41 845.15,134.47 819.56,159.6 786.06,140.99 			"/>
			<polygon class="st10" points="845.15,134.47 843.08,128.77 798.62,103.13 798.62,108.41 			"/>
			<polygon class="st10" points="798.62,86.08 802.2,86.88 802.35,105.56 798.62,103.13 			"/>
			<g>
				<polygon points="712.13,95.36 695.29,118.27 694.39,117.26 694.39,98.28 695.21,97.16 				"/>
				<polygon points="750.2,91.27 714.47,139.94 705.93,130.31 733.28,93.08 				"/>
				<polygon points="788.28,87.18 746.74,143.73 730.31,144.89 771.35,89 				"/>
				<polygon points="798.62,99.64 798.62,108.42 788.51,134.62 783.71,141.15 767.28,142.31 				"/>
			</g>
			<g>
				<rect x="758.5" y="152.62" class="st11" width="1.58" height="221.37"/>
				<rect x="787.49" y="152.62" class="st11" width="1.58" height="221.37"/>
			</g>
			<polygon class="st8" points="800.21,370.66 800.21,394.88 784.17,410.92 760.91,410.92 744.86,394.88 744.86,370.66 			"/>
			<polygon points="760.9,410.92 760.9,421.93 784.49,421.93 784.17,410.92 			"/>
			<path d="M787.57,447.15c-0.32,3.86-1.87,6.77-3.71,9.25c-1.9,2.43-4.27,4.46-7.2,5.82c-1.46,0.69-3.1,1.14-4.84,1.28
				c-1.72,0.16-3.53-0.12-5.15-0.74c-1.6-0.66-2.96-1.64-3.99-2.77c-1.01-1.13-1.77-2.35-2.3-3.59c-0.3-0.62-0.47-1.26-0.7-1.87
				c-0.16-0.63-0.33-1.26-0.43-1.88c-0.46-2.86,0.69-5.16,1.65-6.17c0,2.67,1.23,6.12,2.92,7.38c0.82,0.66,1.69,1.13,2.49,1.48
				c0.82,0.3,1.56,0.4,2.2,0.35c1.28-0.11,2.32-0.73,3.45-1.68c1.1-0.99,2.12-2.32,2.86-3.72c0.7-1.4,1.13-2.9,1.01-3.72
				c-0.03-0.85-0.24-1.94-0.9-3.39c-0.39-0.9-1.14-2.26-1.99-3.68c-2.81-4.74-4.31-10.13-4.31-15.64v-1.92h8.16v6.73
				c0,1.16,0.6,2.22,1.59,2.8l0.08,0.04c2.31,1.41,4.49,3.24,6.26,5.81c0.47,0.6,0.83,1.34,1.22,2.07c0.42,0.69,0.69,1.53,0.95,2.35
				C787.45,443.37,787.7,445.25,787.57,447.15z"/>
			<g>
				<polygon points="745.64,370.66 744.86,371.41 744.86,370.66 				"/>
				<polygon points="761.88,370.66 744.86,387.09 744.86,378.49 752.97,370.66 				"/>
				<polygon points="778.11,370.66 748.87,398.88 744.86,394.88 744.86,394.18 769.21,370.66 				"/>
				<polygon points="794.34,370.66 756.85,406.86 752.48,402.49 785.45,370.66 				"/>
				<polygon points="800.21,372.08 800.21,380.68 768.9,410.92 760.91,410.92 760.46,410.48 				"/>
				<polygon points="800.21,387.75 800.21,394.88 784.17,410.92 776.23,410.92 				"/>
			</g>
			<path d="M794.45,152.67l-39.72,3.09c-0.47,0.04-0.93-0.15-1.24-0.5c-0.24-0.28-0.35-0.62-0.35-0.95c0-0.71,0.52-1.41,1.34-1.48
				l39.47-3.36c0.44-0.04,0.87,0.12,1.18,0.44l0.26,0.26C796.25,151.08,795.69,152.57,794.45,152.67z"/>
		</g>
	</g>
	<g>
		<path class="st32" d="M682.34,494.73c-4.24-35.98,12.29-56.55,46.99-56.55c34.7,0,56.08,20.56,60.32,56.55l13.78,116.95
			c4.24,35.98-12.29,56.55-46.99,56.55c-34.7,0-56.08-20.56-60.32-56.55L682.34,494.73z M731.73,613.93
			c1.89,16.06,9.68,22.17,20.93,22.17c11.25,0,17.59-6.1,15.7-22.17l-14.31-121.45c-1.89-16.06-9.68-22.17-20.93-22.17
			c-11.25,0-17.59,6.1-15.7,22.17L731.73,613.93z"/>
		<path class="st31" d="M671.57,488.45c-4.24-35.98,12.29-56.55,46.99-56.55c34.7,0,56.08,20.56,60.32,56.55l13.78,116.95
			c4.24,35.98-12.29,56.55-46.99,56.55c-34.7,0-56.08-20.56-60.32-56.55L671.57,488.45z M720.96,607.65
			c1.89,16.06,9.68,22.17,20.93,22.17c11.25,0,17.59-6.1,15.7-22.17L743.28,486.2c-1.89-16.06-9.68-22.17-20.93-22.17
			c-11.25,0-17.59,6.1-15.7,22.17L720.96,607.65z"/>
		<path d="M753.37,451.84c0,2.13-1.73,3.86-3.86,3.86c-2.13,0-3.86-1.73-3.86-3.86c0-2.13,1.73-3.86,3.86-3.86
			C751.64,447.98,753.37,449.71,753.37,451.84z"/>
	</g>
	<g>
		<path class="st8" d="M425.71,471.06l8.44,73.34c1.03,8.98-5.41,16.25-14.38,16.25H197.29c-8.98,0-17.09-7.27-18.12-16.25
			l-8.44-73.34c-1.03-8.97,5.4-16.25,14.38-16.25h222.48C416.56,454.81,424.68,462.08,425.71,471.06z"/>
		<g>
			<path class="st38" d="M271.29,524.12l-29.91-43.15c-2.47-4.03-6.08-6.25-10.17-6.25c0,0,0,0,0,0c-3.86,0-7.04,2.12-8.53,5.66
				L202,524.97c-0.85,1.64-1.18,3.54-0.95,5.48c0.64,5.58,5.64,10.14,11.21,10.27l0,0l0.23,0c0.01,0,0.02,0,0.03,0c0,0,0,0,0.01,0
				l52.56-0.01l0.78,0l0-0.03c2.44-0.18,4.61-1.22,6.17-2.98c1.72-1.94,2.49-4.52,2.17-7.27
				C273.91,527.91,272.71,526.08,271.29,524.12z M269.47,530.44c0.35,3.04-1.83,5.53-4.87,5.55c-0.73,0-52.33,0.01-52.64,0.01
				c0,0,0,0,0,0c-1.48,0-2.94-0.58-4.11-1.63c-1.17-1.05-1.91-2.44-2.08-3.92c-0.12-1.05,0.06-2.08,0.52-2.96l20.03-43.26l0.79-1.65
				c0.94-2.02,2.58-3.13,4.63-3.13c0,0,0,0,0,0c2.24,0,4.01,1.11,5.56,3.5l30.45,43.9C268.42,527.84,269.33,529.18,269.47,530.44z"
				/>
			<g>
				<path class="st38" d="M233.21,514.31c0.75,0.69,1.65,1.05,2.7,1.05c1.02,0,1.85-0.37,2.41-1.06c0.53-0.66,0.78-1.57,0.75-2.71
					l0-0.01l-0.94-18.92l-0.03-0.31c-0.12-1.02-0.55-1.9-1.29-2.61c-0.75-0.72-1.65-1.1-2.61-1.1h-2.84c-0.98,0-1.79,0.37-2.35,1.08
					c-0.54,0.69-0.75,1.57-0.63,2.63l0.03,0.27l3.43,19.04C232.03,512.76,232.5,513.65,233.21,514.31z"/>
				<path class="st38" d="M237.76,521.24h-2.47c-1.07,0-1.91,0.37-2.49,1.09c-0.57,0.7-0.79,1.63-0.66,2.77l0.18,1.6
					c0.13,1.09,0.56,2.01,1.29,2.74c0.76,0.75,1.71,1.15,2.75,1.15h2.47c1.04,0,1.88-0.37,2.5-1.11c0.6-0.72,0.84-1.66,0.71-2.78
					l-0.18-1.6c-0.13-1.1-0.58-2.02-1.34-2.75C239.73,521.62,238.81,521.24,237.76,521.24z"/>
			</g>
		</g>
		<path class="st31" d="M411.6,491.36c0.34,2.94-0.55,5.6-2.25,7.52c-1.7,1.93-4.22,3.12-7.16,3.12H298
			c-5.87,0-11.18-4.76-11.86-10.64c-0.34-2.94,0.55-5.6,2.25-7.52c1.7-1.93,4.22-3.12,7.16-3.12h104.2
			C405.62,480.72,410.93,485.49,411.6,491.36z"/>
		<path class="st31" d="M415.04,521.24c0.34,2.94-0.55,5.6-2.25,7.52c-1.7,1.93-4.22,3.12-7.16,3.12h-104.2
			c-5.87,0-11.18-4.76-11.86-10.64c-0.34-2.94,0.55-5.6,2.25-7.52c1.7-1.93,4.22-3.12,7.16-3.12h104.2
			C409.06,510.61,414.37,515.37,415.04,521.24z"/>
	</g>
	<g>
		<path class="st39" d="M1222.51,396.02l5.84,50.77c0.71,6.21-3.74,11.25-9.95,11.25h-154.01c-6.21,0-11.83-5.03-12.54-11.25
			l-5.84-50.77c-0.71-6.21,3.74-11.25,9.95-11.25h154.01C1216.18,384.77,1221.79,389.81,1222.51,396.02z"/>
		<g>
			<path class="st31" d="M1115.61,432.75l-20.71-29.87c-1.71-2.79-4.21-4.33-7.04-4.33c0,0,0,0,0,0c-2.67,0-4.88,1.46-5.9,3.92
				l-14.31,30.87c-0.59,1.14-0.81,2.45-0.66,3.79c0.45,3.86,3.9,7.02,7.76,7.11l0,0l0.16,0c0.01,0,0.01,0,0.02,0c0,0,0,0,0,0
				l36.38-0.01l0.54,0l0-0.02c1.69-0.12,3.19-0.85,4.27-2.07c1.19-1.34,1.72-3.13,1.5-5.03
				C1117.43,435.37,1116.6,434.11,1115.61,432.75z M1114.35,437.13c0.24,2.1-1.27,3.83-3.37,3.84c-0.51,0-36.23,0.01-36.44,0.01
				c0,0,0,0,0,0c-1.02,0-2.03-0.4-2.84-1.13c-0.81-0.73-1.32-1.69-1.44-2.71c-0.08-0.73,0.04-1.44,0.36-2.05l13.86-29.95l0.55-1.14
				c0.65-1.4,1.79-2.16,3.21-2.16c0,0,0,0,0,0c1.55,0,2.77,0.77,3.85,2.42l21.08,30.39
				C1113.63,435.32,1114.25,436.26,1114.35,437.13z"/>
			<g>
				<path class="st31" d="M1089.25,425.96c0.52,0.48,1.14,0.72,1.87,0.72c0.7,0,1.28-0.25,1.67-0.73c0.36-0.45,0.54-1.09,0.52-1.88
					l0-0.01l-0.65-13.1l-0.02-0.21c-0.08-0.71-0.38-1.31-0.89-1.8c-0.52-0.5-1.14-0.76-1.81-0.76h-1.96c-0.68,0-1.24,0.26-1.63,0.75
					c-0.37,0.48-0.52,1.09-0.44,1.82l0.02,0.19l2.37,13.18C1088.44,424.89,1088.76,425.5,1089.25,425.96z"/>
				<path class="st31" d="M1092.4,430.76h-1.71c-0.74,0-1.32,0.25-1.73,0.75c-0.39,0.48-0.54,1.13-0.45,1.92l0.13,1.11
					c0.09,0.75,0.39,1.39,0.89,1.9c0.52,0.52,1.18,0.79,1.9,0.79h1.71c0.72,0,1.3-0.26,1.73-0.77c0.41-0.5,0.58-1.15,0.49-1.92
					l-0.13-1.11c-0.09-0.76-0.4-1.4-0.93-1.9C1093.77,431.02,1093.12,430.76,1092.4,430.76z"/>
			</g>
		</g>
		<path class="st31" d="M1212.74,421.4c0.23,2.03-0.38,3.87-1.56,5.21c-1.18,1.33-2.92,2.16-4.96,2.16h-72.13
			c-4.07,0-7.74-3.3-8.21-7.36c-0.23-2.03,0.38-3.87,1.56-5.21c1.18-1.33,2.92-2.16,4.96-2.16h72.13
			C1208.6,414.04,1212.27,417.34,1212.74,421.4z"/>
	</g>
	<g>
		<path class="st40" d="M1199.94,850.54v81.64h-30.27v-81.64c0-19.44-7.88-37.03-20.62-49.77c-9.33-9.33-21.27-16.05-34.64-18.98
			c4.87-1.07,9.94-1.64,15.13-1.64c19.44,0,37.04,7.88,49.77,20.61C1192.06,813.51,1199.94,831.11,1199.94,850.54z"/>
		<path class="st39" d="M1169.68,850.54v81.64h-110.51v-81.64c0-33.68,23.66-61.83,55.26-68.75c13.36,2.92,25.31,9.65,34.64,18.98
			C1161.8,813.51,1169.68,831.11,1169.68,850.54z"/>
		<path class="st41" d="M1222.68,946.72v20.78h-186.26v-20.78c0-8.03,6.5-14.54,14.53-14.54h157.19
			C1216.18,932.18,1222.68,938.69,1222.68,946.72z"/>
		<path class="st42" d="M1079.06,844.94v68.47c0,1.2-0.49,2.29-1.27,3.08c-0.79,0.78-1.87,1.27-3.07,1.27
			c-2.4,0-4.35-1.94-4.35-4.35v-68.47c0-1.2,0.49-2.28,1.27-3.07c0.79-0.79,1.87-1.28,3.08-1.28
			C1077.12,840.59,1079.06,842.54,1079.06,844.94z"/>
		<path class="st40" d="M1132.73,883.59h-5.27c-13.5,0-24.45,10.95-24.45,24.45v24.14h54.16v-24.14
			C1157.18,894.54,1146.24,883.59,1132.73,883.59z"/>
		<path class="st39" d="M1137.17,722.02v33.68c0,3.91-3.17,7.07-7.07,7.07c-3.91,0-7.07-3.17-7.07-7.07v-33.68
			c0-3.91,3.17-7.07,7.07-7.07c1.96,0,3.72,0.79,5,2.07C1136.38,718.3,1137.17,720.07,1137.17,722.02z"/>
		<path class="st39" d="M1027.46,765.88l26.6,20.66c3.09,2.4,3.64,6.84,1.25,9.93c-2.4,3.09-6.84,3.64-9.93,1.25l-26.6-20.66
			c-3.09-2.4-3.64-6.84-1.24-9.92c1.2-1.54,2.91-2.45,4.7-2.68C1024.04,764.22,1025.92,764.68,1027.46,765.88z"/>
		<path class="st39" d="M1003.92,866.51l33.68-0.01c3.91,0,7.07,3.16,7.08,7.07c0,3.91-3.16,7.07-7.07,7.08l-33.68,0.01
			c-3.91,0-7.07-3.16-7.07-7.07c0-1.96,0.79-3.72,2.07-5C1000.2,867.3,1001.97,866.51,1003.92,866.51z"/>
		<path class="st39" d="M1233.22,765.88l-26.6,20.66c-3.09,2.4-3.64,6.84-1.25,9.93c2.4,3.09,6.84,3.64,9.93,1.25l26.6-20.66
			c3.09-2.4,3.64-6.84,1.24-9.92c-1.2-1.54-2.91-2.45-4.7-2.68C1236.65,764.22,1234.76,764.68,1233.22,765.88z"/>
		<path class="st39" d="M1256.77,866.51l-33.68-0.01c-3.91,0-7.07,3.16-7.08,7.07c0,3.91,3.16,7.07,7.07,7.08l33.68,0.01
			c3.91,0,7.07-3.16,7.07-7.07c0-1.96-0.79-3.72-2.07-5C1260.49,867.3,1258.72,866.51,1256.77,866.51z"/>
	</g>
	<g>
		<g>
			
				<rect x="623.55" y="893.14" transform="matrix(1 -7.986347e-03 7.986347e-03 1 -7.2908 6.2418)" class="st43" width="308.71" height="45.74"/>
			<g>
				<g>
					<polygon class="st44" points="635.98,940.02 623.74,940.12 631.63,894.31 643.87,894.21 					"/>
					<polygon class="st44" points="661.09,939.82 648.85,939.91 656.74,894.11 668.98,894.01 					"/>
					<polygon class="st44" points="686.03,939.62 673.79,939.72 681.69,893.91 693.93,893.81 					"/>
					<polygon class="st44" points="711.14,939.42 698.9,939.52 706.79,893.71 719.03,893.61 					"/>
				</g>
				<g>
					<polygon class="st44" points="736.3,939.22 724.06,939.31 731.96,893.51 744.2,893.41 					"/>
					<polygon class="st44" points="761.41,939.02 749.17,939.11 757.06,893.31 769.3,893.21 					"/>
					<polygon class="st44" points="786.36,938.82 774.12,938.91 782.01,893.11 794.25,893.01 					"/>
					<polygon class="st44" points="811.46,938.62 799.22,938.71 807.12,892.91 819.35,892.81 					"/>
				</g>
			</g>
			<g>
				<g>
					<polygon class="st44" points="836.95,938.41 824.71,938.51 832.6,892.7 844.84,892.61 					"/>
					<polygon class="st44" points="862.05,938.21 849.81,938.31 857.71,892.5 869.95,892.41 					"/>
					<polygon class="st44" points="887,938.01 874.76,938.11 882.66,892.3 894.89,892.21 					"/>
					<polygon class="st44" points="912.11,937.81 899.87,937.91 907.76,892.1 920,892.01 					"/>
				</g>
			</g>
		</g>
		<rect x="621.36" y="886.56" class="st45" width="15.8" height="188.89"/>
		<rect x="920" y="886.56" class="st45" width="15.8" height="188.89"/>
		<path class="st45" d="M647.57,1076.76v3.24h-36.62v-3.24c0-3.24,2.62-5.86,5.86-5.86h24.91
			C644.95,1070.9,647.57,1073.53,647.57,1076.76z"/>
		<path class="st45" d="M946.21,1076.76v3.24h-36.62v-3.24c0-3.24,2.62-5.86,5.86-5.86h24.91
			C943.59,1070.9,946.21,1073.53,946.21,1076.76z"/>
	</g>
</g>
</svg>
