<?xml version="1.0" encoding="utf-8"?>
<!-- Generator: Adobe Illustrator 25.4.1, SVG Export Plug-In . SVG Version: 6.00 Build 0)  -->
<svg version="1.1" id="Capa_1" xmlns="http://www.w3.org/2000/svg" xmlns:xlink="http://www.w3.org/1999/xlink" x="0px" y="0px"
	 viewBox="0 0 100 100" style="enable-background:new 0 0 100 100;" xml:space="preserve">
<style type="text/css">
	.st0{fill-rule:evenodd;clip-rule:evenodd;fill:#EC5F94;}
	.st1{fill-rule:evenodd;clip-rule:evenodd;fill:#FFE23A;}
	.st2{fill-rule:evenodd;clip-rule:evenodd;fill:#42B06D;}
	.st3{fill-rule:evenodd;clip-rule:evenodd;fill:#1E262D;}
	.st4{fill-rule:evenodd;clip-rule:evenodd;fill:#3AA5D4;}
</style>
<g>
	<g>
		<path class="st0" d="M98.28,60.99c0.08,0.37,0.15,0.54,0.15,0.71c-0.02,3.24-0.05,6.47-0.06,9.71c0,1.08,0.06,2.16,0.06,3.23
			c0.01,4.68,0,9.35,0.01,14.03c0,1.08,0.07,2.16,0.09,3.24c0.02,1.01-0.08,1.12-0.99,1.39c-0.92,0.27-1.86,0.39-2.83,0.39
			c-7.43-0.01-14.87,0.01-22.31,0.01c-0.77,0-1.55,0-2.28,0c-0.46-0.29-0.45-0.72-0.45-1.14c0.01-1.44-0.01-2.88,0.05-4.32
			c0.05-1.39-0.14-2.75-0.5-4.08c-0.22-0.81-0.42-1.62-0.63-2.44c-0.56-2.21-2.5-2.98-4.43-1.74c-0.35,0.22-0.63,0.57-0.99,0.78
			c-0.61,0.37-1.23,0.75-1.9,0.99c-1.6,0.58-2.96,0.08-4.05-1.15c-1.23-1.39-1.59-3.05-1.32-4.86c0.04-0.29,0.12-0.62,0.29-0.84
			c0.95-1.19,2.03-2.21,3.66-2.37c0.97-0.09,1.92,0.04,2.84,0.34c0.23,0.07,0.45,0.17,0.66,0.27c1.92,0.95,3.6,0.42,5.1-0.91
			c0.85-0.75,1.22-1.76,1.2-2.9c-0.02-2.04-0.03-4.08-0.03-6.12c0-0.59,0.03-1.18,0.05-1.66c0.58-0.58,1.18-0.55,1.78-0.55
			c1.8-0.01,3.6,0,5.4-0.03c1.13-0.02,2.27-0.09,3.29-0.14c0.99-0.71,1.17-1.66,1.24-2.62c0.07-1-0.3-1.89-1-2.61
			c-0.68-0.71-1.12-1.54-1.39-2.48c-0.36-1.26-0.09-2.39,0.75-3.36c1.48-1.69,3.41-2.12,5.55-1.78c0.33,0.05,0.68,0.26,0.94,0.49
			c1.62,1.39,2.43,3.1,1.95,5.26c-0.13,0.58-0.35,1.14-0.54,1.71c-0.94,2.8-0.5,2.94,0.95,4.69c0.49,0.6,1.06,0.88,1.86,0.86
			c2.28-0.06,4.56-0.06,6.83-0.08C97.6,60.94,97.89,60.97,98.28,60.99z"/>
		<path class="st1" d="M38.96,61.48c0.51-0.46,1.11-0.46,1.71-0.46c1.98,0,3.96,0,5.94-0.03c1.01-0.02,2.03-0.12,3.1-0.18
			c0.21-0.48,0.4-0.91,0.59-1.34c0.57-1.35,0.37-2.59-0.58-3.69c-0.64-0.74-1.15-1.52-1.46-2.45c-0.47-1.4-0.15-2.63,0.81-3.67
			c1.48-1.59,3.36-1.98,5.44-1.66c0.23,0.03,0.48,0.14,0.65,0.29c1.19,1.03,2.31,2.1,2.32,3.86c0,1.09-0.06,2.15-0.52,3.17
			c-0.17,0.38-0.24,0.8-0.39,1.19c-0.48,1.27,0.01,2.36,0.65,3.39c0.46,0.74,1.15,1.15,2.11,1.13c2.4-0.07,4.8-0.06,7.2-0.08
			c0.29,0,0.59,0,0.93,0c0.13,0.4,0.33,0.73,0.33,1.06c-0.02,2.76-0.05,5.52-0.13,8.28c-0.04,1.54-1.39,2.46-2.88,2.04
			c-0.34-0.1-0.68-0.24-1-0.4c-1.11-0.55-2.29-0.65-3.51-0.59c-1.7,0.08-3.1,0.9-4.41,1.85c-0.8,0.58-1.17,1.51-1.29,2.5
			c-0.15,1.27-0.01,2.51,0.43,3.72c1.14,3.1,4.56,5.38,8.65,2.73c0.35-0.23,0.65-0.54,0.98-0.8c0.43-0.34,0.91-0.57,1.48-0.56
			c0.39,0,0.74,0.12,0.89,0.49c0.32,0.83,0.73,1.6,0.72,2.56c-0.02,2.52,0.07,5.04,0.1,7.56c0.01,0.48-0.04,0.95-0.07,1.45
			c-1.09,0.65-2.24,0.86-3.45,0.86c-4.68-0.01-9.36-0.01-14.04-0.01c-3.65,0-7.31,0-11.09,0c-0.09-0.35-0.28-0.73-0.28-1.11
			c-0.04-9.72-0.06-19.44-0.07-29.16C38.81,62.76,38.67,62.09,38.96,61.48z"/>
		<path class="st2" d="M69.73,27.4c0.66-0.54,1.28-0.46,1.87-0.46c1.62-0.01,3.24,0.01,4.86-0.01c4.67-0.04,9.34,0.04,14.01,0.02
			c2.34-0.01,4.68-0.09,7.02-0.14c0.23,0,0.46,0.03,0.63,0.04c0.48,0.53,0.31,1.09,0.31,1.61c-0.01,3.12-0.07,6.24-0.08,9.35
			c0,3.6,0.04,7.2,0.07,10.79c0.03,3.06,0.07,6.12,0.1,9.18c0,0.35-0.06,0.69-0.1,1.1c-1.01,0.33-1.95,0.66-2.99,0.66
			c-1.68-0.01-3.36,0.02-5.04-0.01c-1.4-0.02-2.26-1.17-1.91-2.54c0.1-0.4,0.29-0.79,0.45-1.17c1.2-2.77,0.52-5.27-1.07-7.64
			c-0.41-0.61-1.01-1.02-1.7-1.27c-2.41-0.9-6,0.14-7.5,2.16c-1.63,2.19-1.36,4.43,0.06,6.7c0.19,0.3,0.47,0.55,0.68,0.84
			c0.2,0.29,0.42,0.59,0.54,0.92c0.34,0.91,0.07,1.46-0.9,1.76c-0.45,0.14-0.93,0.23-1.4,0.24c-2.34,0.05-4.68,0.08-7.02,0.1
			c-0.69,0.01-0.95-0.25-0.96-0.99c-0.01-1.2,0.03-2.4,0.03-3.6c0-1.5,0.01-2.99-0.36-4.47c-0.16-0.63-0.12-1.31-0.1-1.97
			c0.04-1.44,1.26-2.37,2.71-2.07c0.41,0.09,0.8,0.26,1.18,0.43c2.76,1.27,5.27,0.55,7.63-1.03c0.88-0.59,1.37-1.49,1.52-2.55
			c0.18-1.33,0.07-2.63-0.39-3.9c-1.1-3.05-4.53-5.4-8.65-2.73c-0.3,0.19-0.54,0.48-0.84,0.67c-0.35,0.23-0.71,0.46-1.1,0.58
			c-0.86,0.28-1.42-0.06-1.61-0.91c-0.05-0.23-0.09-0.47-0.09-0.71c0.01-2.76,0.02-5.52,0.03-8.27
			C69.64,27.88,69.69,27.64,69.73,27.4z"/>
		<path class="st3" d="M68.4,94.13c-1.95,0.52-3.85,0.87-5.86,0.84c-5.16-0.08-10.32,0-15.48,0c-1.98,0-3.96-0.21-5.93,0.15
			c-0.35,0.07-0.72,0.03-1.08-0.02c-1.89-0.23-2.36-0.59-2.76-2.69c-0.08-0.41-0.05-0.84-0.05-1.26c0.02-9,0.04-18,0.06-27.01
			c0-0.66,0.01-1.32,0.05-1.98c0.07-1.19,0.74-2.03,1.91-2.26c1-0.19,2.02-0.29,3.04-0.33c1.44-0.06,2.88-0.04,4.32-0.06
			c0.42-0.01,0.84-0.03,1.25-0.12c0.4-0.09,0.78-0.28,1.15-0.42c0.38-0.94,0.21-1.73-0.41-2.39c-0.75-0.81-1.26-1.74-1.6-2.78
			c-0.67-2.05-0.12-3.82,1.35-5.28c1.64-1.63,3.7-2.14,5.96-1.9c0.73,0.08,1.37,0.39,1.92,0.89c1.09,0.99,1.81,2.23,2.26,3.6
			c0.46,1.41,0.35,2.84-0.18,4.24c-0.19,0.5-0.41,1-0.59,1.51c-0.28,0.82,0,1.53,0.47,2.19c0.22,0.32,0.56,0.45,0.94,0.45
			c2.22-0.01,4.44-0.02,6.66-0.05c0.68-0.01,1.25-0.35,1.91-0.68c0.04-0.42,0.12-0.82,0.12-1.23c0-2.1-0.07-4.2-0.02-6.3
			c0.03-1.19,0.17-2.39,0.41-3.56c0.33-1.65,2.01-2.74,3.64-2.42c0.64,0.12,1.26,0.37,1.9,0.52c0.81,0.19,1.62,0.41,2.45,0.51
			c1.88,0.22,3.21-0.79,4.32-2.12c0.32-0.39,0.51-0.98,0.55-1.49c0.12-1.61-0.24-3.13-1.34-4.35c-1.74-1.93-3.35-1.81-5.49-0.63
			c-0.36,0.2-0.65,0.53-0.99,0.78c-0.34,0.24-0.68,0.52-1.06,0.67c-1.75,0.73-3.48-0.12-3.83-2c-0.55-2.9-0.72-5.83-0.6-8.78
			c0.06-1.43,1.01-2.84,3.08-2.82c3.06,0.03,6.12,0.06,9.18,0.08c3.72,0.02,7.44,0.01,11.16,0.01c0.96,0,1.92,0,2.88-0.04
			c0.72-0.03,1.43-0.13,2.14-0.21c0.3-0.03,0.59-0.1,0.89-0.13c1.94-0.19,2.9,1.08,2.9,2.83c-0.01,1.62-0.17,3.23-0.19,4.85
			c-0.09,8.16-0.15,16.32-0.22,24.48c0,0.48,0.07,0.97-0.02,1.44c-0.15,0.78-0.21,1.49,0.24,2.22c0.2,0.32,0.19,0.81,0.18,1.22
			c-0.12,7.14-0.27,14.28-0.39,21.42c-0.04,2.7-0.01,5.4-0.01,8.1c0,0.36,0.02,0.72-0.01,1.08c-0.05,0.78-0.38,1.25-1.14,1.4
			c-1.46,0.28-2.88,0.65-4.41,0.63c-5.4-0.08-10.8,0-16.2-0.01c-1.98,0-3.95-0.13-5.93,0.14C70.63,95.28,69.39,95.01,68.4,94.13z
			 M98.28,60.99c-0.39-0.02-0.67-0.05-0.96-0.05c-2.28,0.02-4.56,0.02-6.83,0.08c-0.79,0.02-1.36-0.26-1.86-0.86
			c-1.45-1.75-1.9-1.89-0.95-4.69c0.19-0.57,0.41-1.13,0.54-1.71c0.48-2.16-0.33-3.88-1.95-5.26c-0.26-0.23-0.61-0.43-0.94-0.49
			c-2.14-0.35-4.07,0.08-5.55,1.78c-0.84,0.96-1.12,2.09-0.75,3.36c0.27,0.94,0.7,1.78,1.39,2.48c0.7,0.72,1.07,1.61,1,2.61
			c-0.07,0.96-0.25,1.91-1.24,2.62C79.13,60.9,78,60.98,76.86,61c-1.8,0.03-3.6,0.03-5.4,0.03c-0.6,0-1.2-0.03-1.78,0.55
			c-0.01,0.48-0.05,1.07-0.05,1.66c0,2.04,0.01,4.08,0.03,6.12c0.01,1.14-0.36,2.15-1.2,2.9c-1.5,1.32-3.18,1.85-5.1,0.91
			c-0.22-0.11-0.44-0.2-0.66-0.27c-0.92-0.3-1.87-0.43-2.84-0.34c-1.63,0.15-2.71,1.18-3.66,2.37c-0.18,0.22-0.25,0.55-0.29,0.84
			c-0.27,1.81,0.09,3.47,1.32,4.86c1.08,1.23,2.45,1.72,4.05,1.15c0.67-0.24,1.29-0.62,1.9-0.99c0.36-0.21,0.63-0.55,0.99-0.78
			c1.93-1.23,3.87-0.46,4.43,1.74c0.21,0.81,0.41,1.63,0.63,2.44c0.36,1.34,0.56,2.69,0.5,4.08c-0.06,1.44-0.04,2.88-0.05,4.32
			c0,0.42-0.01,0.85,0.45,1.14c0.73,0,1.51,0,2.28,0c7.44-0.01,14.87-0.03,22.31-0.01c0.97,0,1.9-0.11,2.83-0.39
			c0.91-0.27,1.01-0.38,0.99-1.39c-0.02-1.08-0.09-2.16-0.09-3.24c-0.01-4.68,0-9.35-0.01-14.03c0-1.08-0.07-2.16-0.06-3.23
			c0.01-3.24,0.05-6.47,0.06-9.71C98.42,61.54,98.35,61.36,98.28,60.99z M38.96,61.48c-0.29,0.61-0.14,1.28-0.14,1.93
			c0.01,9.72,0.04,19.44,0.07,29.16c0,0.38,0.19,0.76,0.28,1.11c3.78,0,7.44,0,11.09,0c4.68,0,9.36,0,14.04,0.01
			c1.21,0,2.36-0.21,3.45-0.86c0.02-0.5,0.07-0.97,0.07-1.45c-0.03-2.52-0.12-5.04-0.1-7.56c0.01-0.95-0.4-1.73-0.72-2.56
			c-0.14-0.37-0.5-0.48-0.89-0.49c-0.57-0.01-1.05,0.22-1.48,0.56c-0.33,0.26-0.63,0.57-0.98,0.8c-4.09,2.66-7.51,0.37-8.65-2.73
			c-0.44-1.21-0.58-2.45-0.43-3.72c0.12-0.99,0.48-1.91,1.29-2.5c1.31-0.95,2.71-1.77,4.41-1.85c1.22-0.06,2.4,0.04,3.51,0.59
			c0.32,0.16,0.66,0.3,1,0.4c1.49,0.42,2.83-0.5,2.88-2.04c0.08-2.76,0.11-5.52,0.13-8.28c0-0.33-0.2-0.66-0.33-1.06
			c-0.34,0-0.63,0-0.93,0c-2.4,0.02-4.8,0.01-7.2,0.08c-0.96,0.03-1.65-0.39-2.11-1.13c-0.64-1.02-1.13-2.12-0.65-3.39
			c0.15-0.39,0.22-0.82,0.39-1.19c0.46-1.01,0.53-2.07,0.52-3.17c-0.01-1.76-1.12-2.83-2.32-3.86c-0.17-0.15-0.42-0.25-0.65-0.29
			c-2.07-0.32-3.96,0.07-5.44,1.66c-0.96,1.04-1.28,2.26-0.81,3.67c0.31,0.93,0.82,1.71,1.46,2.45c0.94,1.09,1.15,2.34,0.58,3.69
			c-0.18,0.43-0.38,0.86-0.59,1.34c-1.07,0.07-2.09,0.17-3.1,0.18c-1.98,0.04-3.96,0.03-5.94,0.03
			C40.07,61.03,39.47,61.02,38.96,61.48z M69.73,27.4c-0.03,0.25-0.09,0.48-0.09,0.72c-0.02,2.76-0.03,5.52-0.03,8.27
			c0,0.24,0.04,0.48,0.09,0.71c0.19,0.86,0.75,1.19,1.61,0.91c0.39-0.13,0.75-0.36,1.1-0.58c0.3-0.2,0.54-0.48,0.84-0.67
			c4.12-2.68,7.55-0.32,8.65,2.73c0.46,1.27,0.57,2.57,0.39,3.9c-0.14,1.07-0.63,1.96-1.52,2.55c-2.36,1.58-4.87,2.3-7.63,1.03
			c-0.38-0.17-0.77-0.35-1.18-0.43c-1.44-0.31-2.66,0.62-2.71,2.07c-0.02,0.66-0.05,1.34,0.1,1.97c0.37,1.48,0.36,2.97,0.36,4.47
			c0,1.2-0.04,2.4-0.03,3.6c0,0.73,0.27,1,0.96,0.99c2.34-0.02,4.68-0.05,7.02-0.1c0.47-0.01,0.95-0.11,1.4-0.24
			c0.97-0.3,1.24-0.85,0.9-1.76c-0.12-0.33-0.34-0.63-0.54-0.92c-0.21-0.29-0.49-0.54-0.68-0.84c-1.42-2.26-1.69-4.51-0.06-6.7
			c1.5-2.01,5.09-3.06,7.5-2.16c0.69,0.26,1.29,0.66,1.7,1.27c1.59,2.37,2.27,4.87,1.07,7.64c-0.17,0.38-0.35,0.77-0.45,1.17
			c-0.35,1.37,0.51,2.52,1.91,2.54c1.68,0.02,3.36,0,5.04,0.01c1.04,0.01,1.98-0.33,2.99-0.66c0.04-0.41,0.1-0.76,0.1-1.1
			c-0.03-3.06-0.07-6.12-0.1-9.18c-0.03-3.6-0.07-7.2-0.07-10.79c0-3.12,0.06-6.24,0.08-9.35c0-0.52,0.17-1.09-0.31-1.61
			c-0.17-0.01-0.4-0.04-0.63-0.04c-2.34,0.04-4.68,0.13-7.02,0.14c-4.67,0.02-9.34-0.06-14.01-0.02c-1.62,0.02-3.24,0-4.86,0.01
			C71,26.94,70.39,26.86,69.73,27.4z"/>
	</g>
	<g>
		<path class="st4" d="M32.94,42.99c-0.58,0.48-1.06,1.06-1.68,1.36c-2.32,1.11-4.69,2.12-7.03,3.16c-0.57-0.11-0.77-0.53-0.96-0.98
			c-1.88-4.28-3.76-8.56-5.67-12.83c-2.03-4.54-4.09-9.08-6.14-13.61c-0.24-0.54-0.49-1.09-0.69-1.54c0.1-0.83,0.64-1.09,1.2-1.34
			c1.48-0.66,2.96-1.32,4.44-1.98c6.51-2.92,13.02-5.84,19.54-8.76c0.21-0.1,0.44-0.16,0.61-0.23c0.55,0.24,0.74,0.66,0.91,1.12
			c1.01,2.71,2.5,5.17,3.99,7.64c0.47,0.78,1.2,1.16,1.96,1.47c0.34,0.14,0.83,0.04,1.21-0.08c0.97-0.31,1.62-1.01,2.03-1.92
			c0.35-0.77,0.77-1.48,1.41-2.06c1.36-1.26,2.8-1.51,4.46-0.71c1.48,0.72,2.4,1.94,2.97,3.46c0.28,0.76,0.2,1.49-0.09,2.27
			c-0.84,2.24-2.53,3.24-4.79,3.49c-0.71,0.08-1.43,0.12-2.14,0.21c-1.64,0.21-3.25,2.24-2.67,4c0.37,1.14,0.66,2.31,1.11,3.41
			c0.71,1.71,1.53,3.39,2.32,5.07c0.77,1.64,0.86,1.78-0.79,2.9c-0.39,0.27-0.77,0.57-1.2,0.77c-1.47,0.68-2.95,1.35-4.44,1.98
			c-1.37,0.58-2.67-0.18-2.87-1.66c-0.05-0.41-0.03-0.84-0.06-1.26c-0.17-2.32-0.92-4.33-3.07-5.57c-0.26-0.15-0.46-0.39-0.71-0.54
			c-1.17-0.71-2.39-1.05-3.75-0.5c-1.07,0.43-2.05,0.98-2.88,1.79c-2.81,2.77-2.41,6.75,0.9,8.9c0.35,0.23,0.74,0.39,1.11,0.59
			C32.35,41.48,32.35,41.48,32.94,42.99z"/>
		<path class="st3" d="M37.91,5.23c1.1,2.03,2.23,4.08,3.1,6.26c0.63,1.57,1.37,2.68,2.49,3.72c0.93,0,1.55-0.49,1.91-1.33
			c0.41-0.95,1.01-1.76,1.75-2.48c1.55-1.5,3.38-1.82,5.33-1.11c2.51,0.92,3.93,2.86,4.49,5.43c0.17,0.78,0.07,1.58-0.34,2.27
			c-1.46,2.45-3.44,4.13-6.45,4.25c-0.36,0.01-0.72,0.01-1.08,0.04c-1.76,0.16-2.67,1.49-2.01,3.16c1.06,2.68,2.19,5.33,3.36,7.96
			c0.85,1.91,0.86,1.25,0.3,3.7c-1.33,0.36-2.45,1.28-3.74,1.87c-1.31,0.6-2.64,1.16-3.93,1.79c-0.72,0.35-1.39,0.3-2.06-0.04
			c-1.18-0.59-2.05-1.46-2.29-2.81c-0.07-0.41-0.12-0.83-0.16-1.25c-0.03-0.36-0.03-0.72-0.07-1.08c-0.28-2.39-1.59-3.94-3.87-4.7
			c-0.72-0.24-1.45-0.16-2.11,0.12c-1.24,0.52-2.28,1.33-2.99,2.5c-1.22,1.99-0.76,4.05,1.21,5.54c0.33,0.25,0.71,0.45,1.09,0.62
			c1.66,0.75,2.54,1.95,2.33,3.83c-0.03,0.23,0.03,0.47,0.05,0.77c-0.96,0.69-1.95,1.33-3.06,1.8c-1.55,0.66-3.07,1.37-4.6,2.05
			c-0.27,0.12-0.54,0.27-0.83,0.36c-2.02,0.62-2.94,0.4-4.01-1.53c-0.17-0.31-0.32-0.64-0.47-0.97C17.5,37.44,13.75,28.93,10,20.42
			c-0.19-0.44-0.36-0.89-0.55-1.33c-0.37-0.83-0.13-1.49,0.46-2.12c0.47-0.49,1.02-0.82,1.65-1.06c6.99-2.73,13.86-5.75,20.61-9.02
			c0.86-0.42,1.66-0.96,2.49-1.44C35.62,4.87,36.62,4.54,37.91,5.23z M32.94,42.99c-0.59-1.51-0.59-1.51-1.47-1.99
			c-0.37-0.2-0.76-0.36-1.11-0.59c-3.31-2.15-3.7-6.14-0.9-8.9c0.83-0.81,1.81-1.36,2.88-1.79c1.36-0.55,2.58-0.2,3.75,0.5
			c0.25,0.15,0.46,0.39,0.71,0.54c2.15,1.24,2.9,3.24,3.07,5.57c0.03,0.42,0,0.84,0.06,1.26c0.19,1.48,1.5,2.25,2.87,1.66
			c1.49-0.63,2.97-1.3,4.44-1.98c0.43-0.2,0.81-0.5,1.2-0.77c1.65-1.12,1.56-1.26,0.79-2.9c-0.79-1.68-1.61-3.36-2.32-5.07
			c-0.46-1.1-0.74-2.27-1.11-3.41c-0.57-1.76,1.04-3.79,2.67-4c0.71-0.09,1.43-0.13,2.14-0.21c2.26-0.26,3.95-1.26,4.79-3.49
			c0.29-0.78,0.38-1.51,0.09-2.27c-0.57-1.51-1.48-2.74-2.97-3.46c-1.67-0.81-3.11-0.55-4.46,0.71c-0.63,0.59-1.06,1.29-1.41,2.06
			c-0.41,0.91-1.06,1.61-2.03,1.92c-0.38,0.12-0.87,0.22-1.21,0.08c-0.77-0.3-1.49-0.68-1.96-1.47c-1.49-2.46-2.98-4.93-3.99-7.64
			c-0.17-0.46-0.37-0.88-0.91-1.12c-0.17,0.06-0.4,0.13-0.61,0.23c-6.51,2.92-13.02,5.84-19.54,8.76c-1.48,0.66-2.96,1.32-4.44,1.98
			c-0.55,0.25-1.09,0.51-1.2,1.34c0.2,0.45,0.44,1,0.69,1.54c2.05,4.54,4.11,9.07,6.14,13.61c1.91,4.27,3.79,8.55,5.67,12.83
			c0.2,0.45,0.39,0.87,0.96,0.98c2.34-1.04,4.71-2.05,7.03-3.16C31.88,44.06,32.37,43.47,32.94,42.99z"/>
		<path class="st3" d="M8.01,11.99c-5.22-1.16-5.49,10.46-2.46,12.7c0.26,0.19,0.58-0.12,0.51-0.39c-0.88-3.57-1.84-9.64,2.04-11.65
			C8.37,12.5,8.31,12.05,8.01,11.99z"/>
		<path class="st3" d="M3.01,26.4c-0.78-1.21-1.38-2.11-1.56-3.61c-0.18-1.45-0.1-2.97-0.04-4.43c0.02-0.33-0.51-0.5-0.65-0.17
			c-0.75,1.72-0.93,3.69-0.64,5.54c0.21,1.29,0.92,3.57,2.67,3.19C3.02,26.86,3.13,26.58,3.01,26.4z"/>
		<path class="st3" d="M61.45,12.11c-0.21-0.15-0.5,0.14-0.35,0.35c2.13,3.07,0.01,6.93-0.87,9.93c-0.07,0.23,0.15,0.37,0.35,0.35
			c1.89-0.26,2.51-3.25,2.67-4.75C63.47,15.83,63.36,13.46,61.45,12.11z"/>
		<path class="st3" d="M65.76,16.35c-0.11-0.33-0.56-0.33-0.67,0c-0.24,0.73-0.26,1.46-0.36,2.23c-0.11,0.86-0.44,1.65-0.39,2.52
			c0.01,0.17,0.16,0.29,0.32,0.25C66.68,20.84,66.27,17.81,65.76,16.35z"/>
	</g>
</g>
</svg>
