<?xml version="1.0" encoding="utf-8"?>
<!-- Generator: Adobe Illustrator 25.4.1, SVG Export Plug-In . SVG Version: 6.00 Build 0)  -->
<svg version="1.1" id="Capa_1" xmlns="http://www.w3.org/2000/svg" xmlns:xlink="http://www.w3.org/1999/xlink" x="0px" y="0px"
	 viewBox="0 0 100 100" style="enable-background:new 0 0 100 100;" xml:space="preserve">
<style type="text/css">
	.st0{fill-rule:evenodd;clip-rule:evenodd;fill:#3AA5D4;}
	.st1{fill-rule:evenodd;clip-rule:evenodd;fill:#42B06D;}
	.st2{fill-rule:evenodd;clip-rule:evenodd;fill:#1E262D;}
	.st3{fill-rule:evenodd;clip-rule:evenodd;fill:#ED6F97;}
	.st4{fill-rule:evenodd;clip-rule:evenodd;fill:#FFFFFF;}
</style>
<g>
	<g>
		<path class="st0" d="M24.11,23.47c2.38,0.7,2.72,3.61,5.28,3.5c0.96-0.86,1.69-2.14,3.34-2.13c0.47,0,1.11-0.67,1.38-1.18
			c0.64-1.22,1.3-2.47,1.27-3.93c-0.01-0.63,0.1-1.26,0.16-2.01c2.5-1.04,5.02-1.69,7.7-1.56c-0.23,1.94-0.46,3.71-0.65,5.49
			c-0.14,1.35-0.89,2.36-1.72,3.37c-1.23,1.48-2.46,2.97-3.56,4.54c-1.52,2.18-2.04,4.7-1.99,7.32c0.07,3.43,2.24,5.54,5.69,5.6
			c2.45,0.04,4.91,0.15,7.29-0.77c1.8-0.69,3.59-0.42,5.18,0.71c1.61,1.15,3.17,1.04,4.77-0.01c0.71-0.47,1.45-0.92,2.21-1.29
			c1.39-0.68,2.83-0.81,4.37-0.44c1.65,0.39,3.33,0.62,5.02,0.83c0.82,0.28,0.93,1,0.99,1.77c0.07,0.95,0.07,1.94,0.31,2.85
			c0.55,2.08,1.21,2.53,3.39,2.68c2.37,0.16,2.37,0.16,4.28,1.94c-0.4,1.13-0.81,2.32-1.23,3.51c-0.74,2.07-0.39,3.81,1.59,5
			c1.51,0.91,1.47,2.19,1.05,3.68c-0.57,0.28-1.18,0.52-1.7,0.86c-0.71,0.46-1.59,0.87-2,1.55c-0.92,1.5-2.18,2.61-3.53,3.67
			c-0.61,0.49-0.96,1.15-0.91,1.96c0.1,1.76-0.46,3.37-1.01,5c-0.14,0.4-0.23,0.82-0.34,1.24c-0.71,2.85-0.46,5.33,2.5,6.85
			c0.25,0.13,0.37,0.48,0.68,0.9c-0.38,0.48-0.71,1.02-1.16,1.42c-4.78,4.32-10.35,7.19-16.57,8.8c-1.63,0.42-3.36,0.5-5.15,0.75
			c-0.82-1.02-1.6-1.88-2.25-2.83c-1.52-2.24-3.27-4.17-5.81-5.34c-1.74-0.8-3.49-1.63-4.58-3.39c-0.49-0.8-1.4-0.92-2.29-0.91
			c-1.93,0.01-3.86,0.03-5.78,0.03c-2.46,0.01-4.93,0.01-7.39,0.01c-0.64,0-1.31,0.09-1.92-0.06c-1.78-0.42-3.47-1.08-4.77-2.46
			c-0.27-2.13-0.38-4.25,0.67-6.23c0.38-0.71,0.96-1.09,1.83-1.04c1.49,0.08,2.99,0.07,4.49,0.14c1.33,0.06,2.54-0.12,3.52-1.17
			c0.35-0.38,0.88-0.6,1.3-0.92c1.12-0.85,1.23-1.38,0.59-2.75c-0.71-1.53-1.44-3.06-2.11-4.61c-0.47-1.09-0.29-2.07,0.62-2.92
			c1.36-1.28,2.94-2.1,4.77-2.47c1.05-0.21,2.1-0.41,3.12-0.71c0.6-0.18,1.19-0.49,1.72-0.84c1.1-0.72,1.33-1.7,0.55-2.74
			c-0.83-1.11-1.69-2.25-2.74-3.14c-1.92-1.62-3.33-3.58-4.67-5.66c-0.71-1.11-1.17-2.25-1.46-3.52c-0.23-1.03-0.61-2.04-1.02-3.02
			c-0.42-1.01-1.09-1.81-2.16-2.25c-0.69-0.28-1.32-0.7-1.95-1.11c-1.17-0.74-2.38-1.4-2.84-2.9c-0.57-1.88-0.8-3.78-0.41-5.7
			c0.1-0.48,0.46-0.98,0.84-1.32C21.95,25.21,23.04,24.36,24.11,23.47z"/>
		<path class="st1" d="M79.45,56.52c0.18-1.64,0.59-3.03,1.29-4.38c0.85-1.64,0.6-2.35-0.8-3.63c-1.31-1.2-2.75-2.02-4.6-1.93
			c-0.51,0.02-1.03-0.14-1.44-0.21c-0.73-0.93-0.76-1.89-0.83-2.86c-0.05-0.74-0.1-1.51-0.34-2.2c-0.47-1.32-1.47-2.23-2.9-2.08
			c-1.75,0.18-3.39-0.15-5.06-0.54c-1.73-0.4-3.4,0.06-4.99,0.77c-0.68,0.3-1.34,0.68-1.96,1.09c-1.08,0.73-2.09,0.88-3.24,0.06
			c-2.38-1.68-4.97-1.81-7.64-0.79c-2.07,0.79-4.22,0.63-6.35,0.52c-1.7-0.08-2.95-1.36-3.15-3.1c-0.26-2.29,0.08-4.51,1.36-6.47
			c0.99-1.52,2.05-3.01,3.24-4.38c1.53-1.77,2.57-3.64,2.45-6.06c-0.08-1.58,0.61-2.9,1.79-4.09c1.82-0.46,3.74-0.46,5.61,0.01
			c8.99,2.23,17.07,6.18,23.69,12.8c1.9,1.9,3.32,4.13,4.7,6.45c3.09,5.19,4.28,10.96,5.27,16.74c1.1,6.47,0.11,12.78-2.74,18.76
			c-0.6,1.25-1.08,2.56-1.61,3.84c-0.16,0.39-0.25,0.84-0.49,1.18c-1.72,2.44-3.46,4.86-5.21,7.28c-0.11,0.15-0.36,0.18-0.6,0.29
			c-2.09-1.73-2.76-3.9-2.04-6.54c0.51-1.85,1.18-3.67,1.12-5.64c-0.02-0.84,0.54-1.37,1.23-1.74c0.28-0.15,0.72-0.12,0.89-0.33
			c1.61-2,3.39-3.76,5.8-4.8c0.25-0.11,0.44-0.46,0.57-0.74c0.75-1.64,0.21-4.45-1.09-5.65C80.75,57.56,80.09,57.05,79.45,56.52z"/>
		<path class="st1" d="M17.84,29.67c0.22,1.27,0.41,2.54,0.68,3.79c0.33,1.54,1.23,2.71,2.6,3.5c0.83,0.48,1.62,1.1,2.52,1.39
			c1.64,0.53,2.46,1.72,2.8,3.23c0.99,4.33,3.49,7.73,6.4,10.91c0.85,0.93,1.73,1.86,2.15,3.34c-1.13,0.29-2.14,0.55-3.16,0.81
			c-2.31,0.59-4.38,1.6-6.16,3.24c-1.67,1.54-1.82,3.29-1.03,5.25c0.63,1.57,1.29,3.12,1.89,4.57c-0.99,1.59-2.3,2.11-3.93,1.99
			c-1.17-0.09-2.36-0.04-3.51-0.22c-1.59-0.26-2.71,0.39-3.59,1.58c-0.84,1.14-1.39,2.39-1.43,3.85c-0.02,0.7-0.19,1.4-0.36,2.49
			c-0.74-0.67-1.26-1.01-1.61-1.47c-3.43-4.58-5.19-9.79-5.54-15.47c-0.24-3.86,0.29-7.7,0.87-11.5c0.45-2.96,1-5.91,1.73-8.8
			c0.39-1.52,1.07-3.04,1.94-4.36c1.7-2.59,3.6-5.05,5.44-7.55C16.86,29.81,17.24,29.39,17.84,29.67z"/>
		<path class="st1" d="M17.31,83.81c1.26,0.46,2.2,0.94,3.19,1.14c1.14,0.22,2.33,0.24,3.5,0.26c3.09,0.04,6.19,0.01,9.28,0.03
			c1.06,0.01,2.12,0.08,3.2,0.13c1.25,2.1,3.18,3.24,5.23,4.17c2.88,1.3,4.64,3.57,5.88,6.25c-0.4,0.8-1,0.57-1.48,0.6
			c-0.53,0.03-1.07,0-1.6-0.07c-9.08-1.18-17.26-4.61-24.66-9.93C18.96,85.73,18.03,85.07,17.31,83.81z"/>
		<path class="st1" d="M28.41,24.39c-0.66-0.6-1.36-1.23-2.24-2.03c2.07-1.79,4.4-2.68,6.51-3.67c1,0.52,0.84,1.23,0.68,1.8
			c-0.23,0.81-0.65,1.57-0.9,2.16C31.1,23.23,29.94,23.73,28.41,24.39z"/>
		<path class="st2" d="M87.75,56.81c0,0.32-0.03,0.65,0.01,0.96c0.8,6.4-1.45,11.99-4.6,17.35c-0.43,0.74-0.87,1.48-1.23,2.26
			c-2.24,4.74-5.55,8.6-9.64,11.84c-0.42,0.33-0.84,0.67-1.23,1.03c-4.5,4.09-9.85,6.34-15.79,7.32c-1.48,0.24-2.95,0.53-4.42,0.79
			c-1.78,0.32-3.55,0.84-5.39,0.21c-0.39-0.13-0.85-0.07-1.28-0.05c-3.93,0.24-7.65-0.72-11.3-2.05c-4.54-1.67-8.86-3.78-12.89-6.47
			c-5.6-3.73-9.74-8.65-12.14-14.98c-1.29-3.4-2.98-6.66-3.46-10.33c-0.14-1.06-0.34-2.12-0.35-3.19
			c-0.06-5.92,0.34-11.78,2.39-17.41c0.91-2.51,1.76-5.06,2.76-7.53c0.39-0.97,1.03-1.88,1.73-2.66c2.08-2.31,4.28-4.5,6.37-6.8
			c3.14-3.45,6.81-6.24,10.94-8.34c3.04-1.55,6.22-2.89,9.45-4c6.51-2.24,13.1-1.93,19.52,0.34c7.86,2.77,14.99,6.84,20.84,12.92
			c2.33,2.42,4.29,5.06,5.21,8.37c0.14,0.51,0.41,0.99,0.66,1.46c2.52,4.73,3.53,9.85,3.95,15.12c0.1,1.28,0.02,2.57,0.02,3.85
			C87.81,56.81,87.78,56.81,87.75,56.81z M24.11,23.47c-1.06,0.88-2.16,1.74-3.18,2.67c-0.37,0.34-0.74,0.84-0.84,1.32
			c-0.39,1.92-0.16,3.81,0.41,5.7c0.46,1.5,1.67,2.16,2.84,2.9c0.63,0.4,1.26,0.83,1.95,1.11c1.08,0.44,1.74,1.24,2.16,2.25
			c0.41,0.98,0.78,1.99,1.02,3.02c0.29,1.27,0.74,2.41,1.46,3.52c1.34,2.08,2.75,4.04,4.67,5.66c1.05,0.88,1.9,2.03,2.74,3.14
			c0.78,1.04,0.55,2.02-0.55,2.74c-0.53,0.34-1.12,0.66-1.72,0.84c-1.02,0.3-2.08,0.5-3.12,0.71c-1.83,0.37-3.41,1.19-4.77,2.47
			c-0.9,0.85-1.09,1.83-0.62,2.92c0.67,1.55,1.4,3.08,2.11,4.61c0.63,1.36,0.53,1.9-0.59,2.75c-0.43,0.32-0.95,0.54-1.3,0.92
			c-0.97,1.05-2.18,1.24-3.52,1.17c-1.5-0.07-3-0.06-4.49-0.14c-0.86-0.05-1.45,0.33-1.83,1.04c-1.06,1.98-0.95,4.1-0.67,6.23
			c1.3,1.38,2.98,2.04,4.77,2.46c0.61,0.14,1.28,0.06,1.92,0.06c2.46,0,4.93,0,7.39-0.01c1.93-0.01,3.86-0.02,5.78-0.03
			c0.89-0.01,1.79,0.11,2.29,0.91c1.09,1.75,2.84,2.59,4.58,3.39c2.54,1.17,4.29,3.09,5.81,5.34c0.65,0.95,1.43,1.82,2.25,2.83
			c1.79-0.25,3.51-0.33,5.15-0.75c6.21-1.61,11.78-4.48,16.57-8.8c0.45-0.4,0.77-0.94,1.16-1.42c-0.3-0.41-0.43-0.77-0.68-0.9
			c-2.96-1.52-3.21-4.01-2.5-6.85c0.1-0.42,0.2-0.84,0.34-1.24c0.55-1.62,1.11-3.24,1.01-5c-0.05-0.81,0.3-1.47,0.91-1.96
			c1.34-1.07,2.6-2.17,3.53-3.67c0.41-0.67,1.29-1.08,2-1.55c0.53-0.34,1.13-0.57,1.7-0.86c0.42-1.5,0.46-2.78-1.05-3.68
			c-1.97-1.19-2.33-2.93-1.59-5c0.42-1.19,0.84-2.38,1.23-3.51c-1.91-1.79-1.91-1.79-4.28-1.94c-2.19-0.15-2.84-0.6-3.39-2.68
			c-0.24-0.91-0.24-1.9-0.31-2.85c-0.06-0.77-0.17-1.49-0.99-1.77c-1.69-0.2-3.38-0.43-5.02-0.83c-1.54-0.37-2.98-0.23-4.37,0.44
			c-0.77,0.37-1.5,0.83-2.21,1.29c-1.6,1.05-3.16,1.17-4.77,0.01c-1.59-1.14-3.38-1.4-5.18-0.71c-2.38,0.91-4.84,0.81-7.29,0.77
			c-3.45-0.06-5.62-2.17-5.69-5.6c-0.06-2.62,0.47-5.14,1.99-7.32c1.1-1.58,2.33-3.06,3.56-4.54c0.83-1,1.57-2.02,1.72-3.37
			c0.19-1.78,0.42-3.55,0.65-5.49c-2.68-0.13-5.19,0.52-7.7,1.56c-0.07,0.75-0.18,1.38-0.16,2.01c0.03,1.46-0.63,2.71-1.27,3.93
			c-0.27,0.51-0.91,1.18-1.38,1.18c-1.65-0.01-2.38,1.27-3.34,2.13C26.83,27.08,26.49,24.18,24.11,23.47z M79.45,56.52
			c0.63,0.53,1.3,1.05,1.91,1.61c1.3,1.2,1.84,4.01,1.09,5.65c-0.13,0.28-0.32,0.63-0.57,0.74c-2.4,1.04-4.19,2.8-5.8,4.8
			c-0.17,0.21-0.61,0.19-0.89,0.33c-0.69,0.37-1.25,0.9-1.23,1.74c0.05,1.97-0.61,3.79-1.12,5.64c-0.73,2.64-0.06,4.81,2.04,6.54
			c0.24-0.11,0.49-0.15,0.6-0.29c1.75-2.42,3.5-4.84,5.21-7.28c0.24-0.34,0.32-0.78,0.49-1.18c0.53-1.28,1.02-2.59,1.61-3.84
			c2.85-5.97,3.84-12.29,2.74-18.76c-0.98-5.78-2.18-11.55-5.27-16.74c-1.38-2.32-2.79-4.55-4.7-6.45
			c-6.62-6.62-14.7-10.57-23.69-12.8c-1.87-0.47-3.8-0.47-5.61-0.01c-1.18,1.19-1.87,2.51-1.79,4.09c0.12,2.42-0.91,4.3-2.45,6.06
			c-1.19,1.37-2.25,2.86-3.24,4.38c-1.28,1.96-1.62,4.18-1.36,6.47c0.2,1.74,1.45,3.02,3.15,3.1c2.13,0.1,4.27,0.26,6.35-0.52
			c2.67-1.01,5.26-0.89,7.64,0.79c1.15,0.82,2.16,0.67,3.24-0.06c0.62-0.42,1.28-0.79,1.96-1.09c1.59-0.71,3.26-1.17,4.99-0.77
			c1.67,0.39,3.31,0.73,5.06,0.54c1.44-0.15,2.43,0.76,2.9,2.08c0.25,0.69,0.29,1.46,0.34,2.2c0.07,0.96,0.1,1.92,0.83,2.86
			c0.42,0.06,0.93,0.23,1.44,0.21c1.85-0.09,3.29,0.73,4.6,1.93c1.4,1.28,1.65,2,0.8,3.63C80.04,53.49,79.63,54.88,79.45,56.52z
			 M17.84,29.67c-0.6-0.27-0.98,0.14-1.3,0.57c-1.84,2.5-3.74,4.95-5.44,7.55c-0.86,1.32-1.55,2.84-1.94,4.36
			c-0.73,2.9-1.28,5.85-1.73,8.8c-0.58,3.81-1.11,7.64-0.87,11.5c0.35,5.68,2.11,10.89,5.54,15.47c0.35,0.46,0.87,0.8,1.61,1.47
			c0.16-1.09,0.34-1.79,0.36-2.49c0.04-1.46,0.59-2.71,1.43-3.85c0.88-1.19,2-1.85,3.59-1.58c1.15,0.19,2.34,0.14,3.51,0.22
			c1.63,0.12,2.94-0.4,3.93-1.99c-0.6-1.45-1.26-3.01-1.89-4.57c-0.79-1.97-0.64-3.71,1.03-5.25c1.78-1.65,3.84-2.66,6.16-3.24
			c1.02-0.26,2.03-0.52,3.16-0.81c-0.42-1.48-1.3-2.4-2.15-3.34c-2.91-3.18-5.42-6.58-6.4-10.91c-0.34-1.5-1.17-2.7-2.8-3.23
			c-0.9-0.29-1.69-0.91-2.52-1.39c-1.37-0.79-2.26-1.96-2.6-3.5C18.25,32.21,18.06,30.94,17.84,29.67z M17.31,83.81
			c0.72,1.26,1.65,1.92,2.55,2.57c7.41,5.33,15.59,8.75,24.66,9.93c0.53,0.07,1.07,0.11,1.6,0.07c0.48-0.03,1.08,0.2,1.48-0.6
			c-1.24-2.69-3-4.96-5.88-6.25c-2.06-0.93-3.98-2.07-5.23-4.17c-1.09-0.05-2.15-0.12-3.2-0.13c-3.09-0.02-6.19,0.01-9.28-0.03
			c-1.17-0.01-2.36-0.04-3.5-0.26C19.51,84.75,18.57,84.27,17.31,83.81z M28.41,24.39c1.53-0.66,2.68-1.15,4.04-1.74
			c0.25-0.59,0.67-1.35,0.9-2.16c0.16-0.57,0.33-1.28-0.68-1.8c-2.11,0.98-4.44,1.88-6.51,3.67C27.05,23.16,27.75,23.79,28.41,24.39
			z"/>
		<path class="st2" d="M19.92,14.62C11.53,15.58,5.39,25.98,2.75,33.1c-0.22,0.58,0.65,1.08,1.05,0.61
			c2.27-2.71,4.06-5.83,6.08-8.72c2.79-3.99,6.3-6.78,10.29-9.48C20.51,15.27,20.43,14.56,19.92,14.62z"/>
		<path class="st2" d="M10.3,15.18c-2.62,0.13-4.65,1.69-6.41,3.52C2.03,20.63,0.23,23.04,0,25.79c-0.06,0.69,0.94,0.89,1.26,0.34
			c2.35-3.98,5.36-7.56,9.26-10.11C10.88,15.79,10.77,15.16,10.3,15.18z"/>
		<path class="st2" d="M95.21,54.12c-0.02-0.48-0.8-0.64-0.89-0.12c-1.46,9.08-1.08,16.97-7.35,24.41
			c-0.33,0.39,0.07,0.86,0.52,0.67C96.59,75.22,95.57,62.19,95.21,54.12z"/>
		<path class="st2" d="M99.2,64.59c-1.01,1.56-1.34,3.27-1.86,5.04c-0.62,2.11-1.54,4.12-2.07,6.25c-0.15,0.59,0.53,0.92,0.96,0.56
			c1.5-1.27,2.08-2.99,2.65-4.82c0.67-2.15,1.19-4.56,1.11-6.81C99.98,64.38,99.43,64.23,99.2,64.59z"/>
	</g>
	<g>
		<path class="st3" d="M57.77,27.07c-0.89-1.35-1.71-2.59-2.53-3.83c-1.19-1.78-2.39-3.56-3.57-5.34c-1.61-2.44-2.16-5.18-1.7-7.99
			c0.5-3.02,2.26-5.28,5.2-6.43c0.58-0.23,1.29-0.38,1.88-0.27c2.09,0.41,4.21,0.79,6.22,1.48c1.75,0.6,2.62,2.05,2.73,3.98
			c0.2,3.4-0.3,6.62-2.16,9.55c-1.66,2.61-3.33,5.22-5.02,7.82C58.6,26.38,58.23,26.63,57.77,27.07z M57.77,17.21
			c0.32-0.03,0.97-0.04,1.59-0.17c3.03-0.63,4.88-3.52,4.27-6.48c-0.42-2.05-1.59-3.44-3.45-4.32c-2.19-1.03-4.84-0.53-6.79,1.32
			c-1.56,1.47-2.13,3.91-1.38,5.9C52.83,15.69,54.97,17.16,57.77,17.21z"/>
		<path class="st4" d="M57.74,15.14c-2.22-0.06-4.1-1.83-4-3.77c0.11-2.17,2.1-4.33,3.99-4.32c2.51,0,4.34,2,4.22,4.63
			C61.85,13.73,60.06,15.2,57.74,15.14z"/>
		<path class="st2" d="M56.97,30.09c-0.18-0.13-0.41-0.21-0.52-0.38c-2.19-3.42-4.3-6.89-6.57-10.26
			c-2.18-3.23-2.71-6.85-1.97-10.45c1.04-5.05,5.37-8.73,10.79-7.71c1.37,0.26,2.74,0.52,4.06,0.92c3.81,1.15,5.37,3.32,5.53,7.27
			c0.15,3.53-0.7,6.75-2.45,9.81c-1.33,2.32-2.73,4.58-4.56,6.56c-0.86,0.93-1.48,2.09-2.21,3.14
			C58.57,29.73,57.96,30.29,56.97,30.09z M57.77,27.07c0.46-0.44,0.83-0.69,1.05-1.03c1.69-2.6,3.35-5.21,5.02-7.82
			C65.7,15.3,66.2,12.08,66,8.67c-0.11-1.93-0.98-3.38-2.73-3.98C61.26,4,59.14,3.62,57.05,3.21c-0.59-0.12-1.3,0.04-1.88,0.27
			c-2.93,1.15-4.7,3.41-5.2,6.43c-0.47,2.81,0.08,5.55,1.7,7.99c1.18,1.79,2.38,3.56,3.57,5.34C56.06,24.48,56.88,25.72,57.77,27.07
			z"/>
		<path class="st2" d="M57.77,17.21c-2.8-0.05-4.94-1.52-5.78-3.75c-0.75-1.98-0.17-4.43,1.38-5.9c1.96-1.85,4.61-2.36,6.79-1.32
			c1.86,0.88,3.03,2.27,3.45,4.32c0.61,2.96-1.24,5.84-4.27,6.48C58.74,17.16,58.09,17.17,57.77,17.21z M57.74,15.14
			c2.32,0.06,4.11-1.42,4.21-3.47c0.12-2.62-1.71-4.63-4.22-4.63c-1.88,0-3.87,2.16-3.99,4.32C53.63,13.31,55.51,15.09,57.74,15.14z
			"/>
	</g>
</g>
</svg>
