<?xml version="1.0" encoding="utf-8"?>
<!-- Generator: Adobe Illustrator 25.4.1, SVG Export Plug-In . SVG Version: 6.00 Build 0)  -->
<svg version="1.1" id="Capa_1" xmlns="http://www.w3.org/2000/svg" xmlns:xlink="http://www.w3.org/1999/xlink" x="0px" y="0px"
	 viewBox="0 0 100 100" style="enable-background:new 0 0 100 100;" xml:space="preserve">
<style type="text/css">
	.st0{fill:#3AA5D4;}
	.st1{fill:#42B06D;}
	.st2{fill:#EC5F94;}
	.st3{fill:#FFE23A;}
	.st4{fill-rule:evenodd;clip-rule:evenodd;fill:#1E262D;}
	.st5{fill-rule:evenodd;clip-rule:evenodd;fill:#EC5F94;}
</style>
<g>
	<g>
		<path class="st0" d="M97.36,43.04c-1.72-3.49-4.49-5.67-8.18-6.77c-2.83-0.84-5.72-1.17-8.66-1.1c-1.04,0.04-2.09,0.05-3.13,0.12
			c-2.56,0.17-5.06,0.67-7.49,1.52c-2.11,0.74-3.94,1.9-5.38,3.63c-1.39,1.68-2.35,3.53-2.5,5.77c-0.06,0.94-0.18,1.88,0.07,2.79
			c0.33,1.2,0.73,2.39,1.12,3.58c0.41,1.25,1.06,2.38,1.86,3.42c2.44,3.19,5.74,5.08,9.52,6.23c0.64,0.19,1.32,0.32,1.99,0.37
			c4.55,0.35,8.96-0.25,13.16-2.05c2.63-1.13,4.97-2.7,6.62-5.09C99.07,51.53,99.5,47.39,97.36,43.04z"/>
		<path class="st1" d="M4.28,21.95c1.08,0.98,2.18,1.96,3.38,2.77c4.4,2.97,9.15,3.55,14.18,1.83c2.42-0.83,4.75-1.91,6.91-3.27
			c1.27-0.8,2.48-1.73,3.65-2.68c1.06-0.86,1.89-1.95,2.46-3.2c0.57-1.26,0.81-2.58,0.56-3.96c-0.34-1.84-1.3-3.26-2.83-4.33
			c-1.87-1.3-4-2.01-6.16-2.62c-2.94-0.83-5.94-1.1-8.98-0.97c-1.15,0-2.3-0.05-3.44,0.01c-2.15,0.12-4.24,0.55-6.25,1.31
			C7.17,7.04,6.56,7.32,6.13,7.74c-1.86,1.79-3.32,3.88-4.21,6.33c-0.77,2.12-0.48,4.12,0.77,5.96C3.15,20.71,3.67,21.39,4.28,21.95
			z"/>
		<path class="st2" d="M32.21,75c-1.33-0.72-2.67-1.43-4.14-1.81c-1.51-0.4-3.02-0.81-4.55-1.12c-2.05-0.41-4.13-0.54-6.22-0.23
			c-1.29,0.19-2.58,0.31-3.87,0.49c-0.46,0.06-0.94,0.16-1.36,0.35c-2.94,1.3-5.65,2.9-7.53,5.64c-0.34,0.5-0.56,0.98-0.58,1.57
			c-0.08,2.91,0.34,5.72,1.75,8.32c1.42,2.62,3.56,4.31,6.45,5.03c2.19,0.55,4.42,0.75,6.67,0.75c1.25-0.06,2.5-0.1,3.75-0.2
			c0.67-0.06,1.34-0.2,2-0.37c3.97-1.06,7.13-3.35,9.77-6.44c0.07-0.08,0.13-0.17,0.19-0.25C36.9,83.65,36.8,77.49,32.21,75z"/>
		<path class="st3" d="M8.29,54.94c2.83,1.17,5.79,1.74,8.85,1.65c0.73,0,1.46,0.04,2.19-0.01c1.94-0.12,3.83-0.52,5.57-1.41
			c2.44-1.25,4.58-2.9,6.45-4.9c1.34-1.44,2.24-3.11,2.74-5.03c0.73-2.8,0.07-5.15-2.07-7.1c-0.11-0.11-0.23-0.22-0.35-0.31
			c-2.41-1.88-5.16-3.01-8.19-3.19c-3.34-0.2-6.68,0.06-9.94,0.91c-2.12,0.55-4.24,1.11-6.34,1.72c-0.8,0.23-1.53,0.65-2.01,1.41
			c-0.42,0.66-0.84,1.32-1.32,1.94c-1.8,2.31-2.12,4.92-1.65,7.71c0.25,1.49,0.95,2.74,1.93,3.86C5.29,53.47,6.73,54.3,8.29,54.94z"
			/>
	</g>
	<path class="st4" d="M34.39,20.42c-0.14,0.09-0.28,0.16-0.39,0.27c-3.34,3.38-7.41,5.58-11.8,7.2c-5.72,2.1-11.08,1.22-16.05-2.25
		c-1.81-1.27-3.45-2.71-4.7-4.55c-1.4-2.07-1.78-4.34-1.17-6.73c0.58-2.28,1.78-4.22,3.55-5.79c0.51-0.45,1.02-0.9,1.53-1.34
		c0.76-0.66,1.66-1.08,2.6-1.41c2.13-0.74,4.33-1.19,6.59-1.24c1.98-0.04,3.97-0.06,5.95,0.02c3.53,0.14,6.91,0.99,10.16,2.37
		c0.95,0.41,1.86,0.95,2.72,1.54c3.01,2.06,3.98,6.07,2.57,9.18c-0.28,0.61-0.58,1.2-0.92,1.88c0.95,0.61,1.87,1.2,2.79,1.77
		c3.38,2.13,6.12,4.88,8.05,8.38c0.93,1.69,1.78,3.43,2.58,5.18c1.25,2.76,2.13,5.66,2.78,8.62c0.12,0.55,0.28,1.09,0.44,1.69
		c3.03,0.23,5.98,0.46,8.98,0.69c0.1-0.23,0.21-0.41,0.25-0.6c0.89-4.3,3.41-7.3,7.34-9.16c1.95-0.92,4.03-1.43,6.14-1.78
		c3.42-0.56,6.86-0.64,10.3-0.31c2.08,0.2,4.11,0.68,6.09,1.39c4.53,1.63,7.32,4.9,8.64,9.43c1.24,4.23,0.49,8.16-2.16,11.71
		c-1.17,1.57-2.6,2.86-4.26,3.88c-3.04,1.86-6.3,2.97-9.9,3.05c-2.82,0.06-5.64-0.05-8.44-0.36c-1.07-0.12-2.13-0.49-3.15-0.88
		c-5.24-2.03-8.6-5.75-9.95-11.23c-0.31-1.26-0.58-2.53-0.89-3.88c-0.88-0.39-1.88-0.15-2.85-0.24c-1.04-0.1-2.08-0.18-3.12-0.26
		c-0.98-0.08-1.96-0.14-3.02-0.07c0,0.49-0.03,0.89,0,1.29c0.2,2.35,0.37,4.7-0.14,7.02c-0.72,3.26-1.57,6.5-3.19,9.46
		c-1.25,2.29-2.56,4.55-3.91,6.78c-1.25,2.06-2.7,3.97-4.63,5.47c-0.2,0.16-0.39,0.35-0.55,0.55c-0.54,0.66-1.19,1.16-2.07,1.47
		c0.05,0.31,0.12,0.61,0.13,0.91c0.07,1.2,0.23,2.4,0.16,3.59c-0.12,2.11-1.06,3.91-2.48,5.45c-1.71,1.85-3.66,3.42-5.86,4.66
		c-2.22,1.25-4.61,1.98-7.14,2.14c-3.23,0.22-6.46,0.17-9.66-0.52c-4.71-1.01-7.59-3.92-8.93-8.45c-0.63-2.13-0.68-4.32-0.51-6.52
		c0.1-1.25,0.6-2.29,1.67-3.05c0.8-0.58,1.55-1.24,2.28-1.9c2.55-2.32,5.59-3.59,8.93-4.24c3.34-0.64,6.65-0.37,9.93,0.45
		c0.91,0.23,1.82,0.46,2.72,0.74c3.25,1,6.23,2.43,8.14,5.44c0.62-0.03,0.97-0.41,1.35-0.76c0.61-0.57,1.21-1.14,1.82-1.71
		c1.19-1.11,2.23-2.35,3.08-3.73c1.56-2.53,3.11-5.08,4.57-7.67c0.89-1.59,1.65-3.25,1.98-5.08c0.14-0.76,0.45-1.49,0.67-2.25
		c0.38-1.31,0.61-2.65,0.61-4.01c0-1.67-0.04-3.34-0.07-5.01c0-0.15-0.08-0.29-0.14-0.5c-1.23-0.16-2.46-0.36-3.71-0.34
		c-2.09,0.04-4.18,0.08-6.26,0.14c-1.72,0.05-3.44,0.12-5.24,0.19c-0.13,0.27-0.29,0.59-0.44,0.91c-0.21,0.42-0.37,0.87-0.62,1.26
		c-2.76,4.43-6.56,7.53-11.64,8.91c-2.45,0.67-4.97,0.59-7.47,0.41c-2.3-0.17-4.54-0.66-6.7-1.5C7.63,56.29,6.89,56,6.21,55.63
		c-4.31-2.37-5.94-5.9-5.61-10.49c0.08-1.1,0.33-2.16,0.78-3.18c0.41-0.92,0.99-1.7,1.74-2.38c0.62-0.56,1.23-1.13,1.78-1.75
		c0.57-0.65,1.21-1.14,2.01-1.44c4.98-1.85,10.09-3.15,15.43-2.92c3.14,0.14,6.17,1.02,8.9,2.68c0.79,0.48,1.5,1.13,2.16,1.79
		c1.59,1.6,2.33,3.55,2.22,5.82c-0.02,0.36-0.03,0.73-0.03,1.09c0,0.04,0.04,0.09,0.13,0.26c0.58,0.11,1.25-0.07,1.9-0.08
		c0.68-0.01,1.36-0.04,2.04-0.07c0.68-0.02,1.36-0.07,2.03-0.08c0.73-0.01,1.46-0.02,2.19,0c0.68,0.01,1.36,0.05,2.03,0.1
		c0.68,0.04,1.36,0.08,2.03,0.17c0.67,0.09,1.34,0.19,2.1,0.04c0-0.22,0.04-0.41-0.01-0.59c-0.99-4.18-2.3-8.24-4.22-12.09
		c-1.36-2.73-2.95-5.29-5.21-7.38c-0.5-0.46-1-0.93-1.54-1.33C37.53,22.66,35.96,21.55,34.39,20.42z M80.52,35.17
		c-1.04,0.04-2.09,0.05-3.13,0.12c-2.56,0.17-5.06,0.67-7.49,1.52c-2.11,0.74-3.94,1.9-5.38,3.63c-1.39,1.68-2.35,3.53-2.5,5.77
		c-0.06,0.94-0.18,1.88,0.07,2.79c0.33,1.2,0.73,2.39,1.12,3.58c0.41,1.25,1.06,2.38,1.86,3.42c2.44,3.19,5.74,5.08,9.52,6.23
		c0.64,0.19,1.32,0.32,1.99,0.37c4.55,0.35,8.96-0.25,13.16-2.05c2.63-1.13,4.97-2.7,6.62-5.09c2.71-3.93,3.14-8.06,0.99-12.42
		c-1.72-3.49-4.49-5.67-8.18-6.77C86.35,35.43,83.46,35.1,80.52,35.17z M17.44,5.51c-1.15,0-2.3-0.05-3.44,0.01
		c-2.15,0.12-4.24,0.55-6.25,1.31C7.17,7.04,6.56,7.32,6.13,7.74c-1.86,1.79-3.32,3.88-4.21,6.33c-0.77,2.12-0.48,4.12,0.77,5.96
		c0.46,0.69,0.98,1.37,1.59,1.92c1.08,0.98,2.18,1.96,3.38,2.77c4.4,2.97,9.15,3.55,14.18,1.83c2.42-0.83,4.75-1.91,6.91-3.27
		c1.27-0.8,2.48-1.73,3.65-2.68c1.06-0.86,1.89-1.95,2.46-3.2c0.57-1.26,0.81-2.58,0.56-3.96c-0.34-1.84-1.3-3.26-2.83-4.33
		c-1.87-1.3-4-2.01-6.16-2.62C23.49,5.65,20.48,5.38,17.44,5.51z M18.83,93.99c1.25-0.06,2.5-0.1,3.75-0.2
		c0.67-0.06,1.34-0.2,2-0.37c3.97-1.06,7.13-3.35,9.77-6.44c0.07-0.08,0.13-0.17,0.19-0.25c2.37-3.08,2.26-9.24-2.32-11.72
		c-1.33-0.72-2.67-1.43-4.14-1.81c-1.51-0.4-3.02-0.81-4.55-1.12c-2.05-0.41-4.13-0.54-6.22-0.23c-1.29,0.19-2.58,0.31-3.87,0.49
		c-0.46,0.06-0.94,0.16-1.36,0.35c-2.94,1.3-5.65,2.9-7.53,5.64c-0.34,0.5-0.56,0.98-0.58,1.57c-0.08,2.91,0.34,5.72,1.75,8.32
		c1.42,2.62,3.56,4.31,6.45,5.03C14.35,93.79,16.58,93.99,18.83,93.99z M17.14,56.59c0.73,0,1.46,0.04,2.19-0.01
		c1.94-0.12,3.83-0.52,5.57-1.41c2.44-1.25,4.58-2.9,6.45-4.9c1.34-1.44,2.24-3.11,2.74-5.03c0.73-2.8,0.07-5.15-2.07-7.1
		c-0.11-0.11-0.23-0.22-0.35-0.31c-2.41-1.88-5.16-3.01-8.19-3.19c-3.34-0.2-6.68,0.06-9.94,0.91c-2.12,0.55-4.24,1.11-6.34,1.72
		c-0.8,0.23-1.53,0.65-2.01,1.41c-0.42,0.66-0.84,1.32-1.32,1.94c-1.8,2.31-2.12,4.92-1.65,7.71c0.25,1.49,0.95,2.74,1.93,3.86
		c1.13,1.29,2.57,2.12,4.13,2.76C11.12,56.11,14.08,56.68,17.14,56.59z"/>
	<path class="st4" d="M71.43,47.8c0.65,0,1.17-0.04,1.69,0.01c0.51,0.05,1.07,0.09,1.5,0.32c0.65,0.35,1.28,0.35,1.96,0.29
		c0.83-0.08,1.67-0.17,2.36,0.48c0.3,0.29,0.69,0.15,1.04,0.07c0.96-0.22,1.93-0.42,2.89-0.68c0.91-0.25,1.66-0.08,2.22,0.68
		c0.41,0.55,0.97,0.6,1.54,0.45c0.65-0.17,1.28-0.42,1.92-0.64c1.38-0.48,2.64-0.14,3.86,0.53c0.04,0.02,0.04,0.09,0.09,0.22
		c-0.62,0.62-1.45,0.89-2.22,0.55c-1.43-0.63-2.73-0.44-4.04,0.23c-0.87,0.44-1.62,0.3-2.17-0.54c-0.41-0.62-1-0.73-1.65-0.54
		c-0.85,0.25-1.68,0.54-2.51,0.84c-0.29,0.1-0.55,0.31-0.83,0.44c-0.46,0.21-0.95,0.23-1.29-0.19c-0.51-0.66-1.15-0.84-1.93-0.72
		c-0.49,0.08-0.98-0.01-1.32-0.35c-0.6-0.58-1.3-0.57-2.04-0.52c-0.47,0.03-0.94,0.09-1.4,0.05c-0.68-0.06-1.14-0.63-1.07-1.29
		c0.02-0.17,0.18-0.4,0.33-0.47c0.14-0.06,0.4,0.02,0.54,0.13C71.11,47.3,71.24,47.55,71.43,47.8z"/>
	<path class="st4" d="M24.81,16.25c0.19,0.47,0,0.75-0.34,0.78c-1.24,0.12-2.48,0.3-3.73,0.11c-0.73-0.11-1.43-0.2-2.17-0.04
		c-0.34,0.07-0.72-0.01-1.08-0.01c-0.31,0-0.67-0.06-0.92,0.07c-0.95,0.5-1.58,0.14-2.11-0.64c-0.06-0.08-0.13-0.16-0.22-0.28
		c0.26-0.53,0.68-0.78,1.25-0.54c0.41,0.18,0.8,0.18,1.21,0.11c0.25-0.04,0.56-0.13,0.77-0.04c1.5,0.62,3.09-0.02,4.61,0.42
		c0.53,0.15,1.14,0,1.71,0C24.15,16.19,24.5,16.23,24.81,16.25z"/>
	<path class="st4" d="M9.6,16c0.49-0.11,0.84-0.18,1.19-0.26c1.28-0.29,1.46-0.2,2.12,1.11c-0.16,0.3-0.43,0.26-0.65,0.12
		c-0.34-0.22-0.65-0.49-0.92-0.7c-0.66-0.11-1.02,0.34-1.49,0.54c-0.69,0.28-1.22,0.14-1.6-0.48c-0.33-0.55-0.49-1.15-0.34-1.78
		c0.04-0.17,0.24-0.37,0.4-0.41c0.16-0.04,0.45,0.07,0.52,0.2C9.1,14.83,9.31,15.35,9.6,16z"/>
	<path class="st4" d="M28.21,17.44c-0.6-0.29-0.85-0.62-0.71-1.15c0.08-0.31,0.43-0.5,0.71-0.39c0.27,0.1,0.39,0.31,0.36,0.59
		c-0.01,0.1-0.03,0.2-0.07,0.29C28.43,16.97,28.34,17.15,28.21,17.44z"/>
	<path class="st4" d="M14.57,82.66c0.8,0.1,1.48-0.23,2.16-0.46c0.76-0.26,1.48-0.35,2.28-0.07c0.46,0.16,1.03,0.1,1.53,0.03
		c0.58-0.08,1.13-0.14,1.7,0.02c0.67,0.19,1.34,0.12,1.99-0.16c0.24-0.1,0.48-0.2,0.73-0.27c1.27-0.4,1.72-0.23,2.61,0.98
		c-0.14,0.59-0.63,0.78-1.07,0.59c-0.93-0.41-1.83-0.21-2.76-0.13c-1.35,0.12-2.7,0.19-4.05,0.26c-0.26,0.01-0.54,0.02-0.78-0.06
		c-1.05-0.37-2.06-0.13-3.07,0.15c-0.5,0.14-1.01,0.29-1.52,0.34c-0.83,0.08-1.26-0.32-1.31-1.17c-0.01-0.2,0.02-0.42,0.07-0.62
		c0.09-0.38,0.6-0.55,0.87-0.27C14.19,82.08,14.37,82.39,14.57,82.66z"/>
	<path class="st4" d="M10.21,83.7c-0.47,0.04-0.89-0.2-0.97-0.54c-0.07-0.29-0.1-0.62-0.03-0.9c0.06-0.21,0.29-0.47,0.48-0.52
		c0.18-0.04,0.46,0.13,0.64,0.28c0.14,0.12,0.16,0.37,0.28,0.53c0.15,0.2,0.41,0.39,0.19,0.65C10.63,83.43,10.36,83.58,10.21,83.7z"
		/>
	<path class="st4" d="M30.83,82.92c-0.1,0.06-0.24,0.23-0.41,0.25c-0.36,0.03-0.67-0.33-0.59-0.71c0.03-0.15,0.24-0.36,0.39-0.37
		C30.57,82.05,30.86,82.42,30.83,82.92z"/>
	<path class="st4" d="M11.38,46.42c0.65,0,1.22-0.22,1.78-0.51c1.26-0.64,1.27-0.63,2.55,0.37c0.67-0.22,1.4-0.47,2.13-0.7
		c0.34-0.11,0.7-0.21,1.05-0.23c0.42-0.03,0.76,0.26,0.91,0.71c0.11,0.34-0.2,0.87-0.52,0.78c-1.21-0.34-2.21,0.23-3.25,0.66
		c-1.15,0.47-1.27,0.43-2.07-0.58c-0.39-0.49-0.88-0.62-1.5-0.33c-0.42,0.2-0.78,0.52-1.19,0.73c-0.69,0.36-1.36,0.08-1.62-0.65
		c-0.05-0.14-0.05-0.31-0.04-0.46c0.05-0.44,0.57-0.71,0.93-0.46c0.17,0.11,0.29,0.29,0.45,0.43
		C11.11,46.27,11.25,46.34,11.38,46.42z"/>
	<path class="st4" d="M26.77,46.21c-0.9-0.02-1.71,0.35-2.53,0.66c-0.29,0.11-0.56,0.27-0.86,0.36c-0.53,0.17-0.85,0.03-1.19-0.46
		c-0.34-0.49-0.6-0.74-1.09-1.02c0.3-0.62,0.88-0.87,1.47-1c0.26-0.06,0.63,0.08,0.84,0.26c0.26,0.22,0.41,0.58,0.65,0.94
		c0.61,0.09,1.15-0.26,1.73-0.46c0.44-0.16,0.85-0.39,1.3-0.51c0.81-0.21,1.28,0.16,1.35,1.03c0.01,0.15-0.01,0.31-0.03,0.46
		c-0.06,0.39-0.48,0.64-0.82,0.43C27.32,46.72,27.07,46.45,26.77,46.21z"/>
</g>
<path class="st5" d="M98.96,20.11c-0.08,0.39-0.08,0.6-0.17,0.75c-0.34,0.59-0.69,1.17-1.07,1.73c-1.67,2.46-3.35,4.92-5.03,7.37
	c-0.27,0.39-0.51,0.8-0.84,1.13c-0.58,0.59-1.43,0.52-1.88-0.18c-0.31-0.48-0.49-1.03-0.72-1.56c-0.36-0.86-0.6-1.78-1.22-2.61
	c-0.44,0.06-0.89,0.18-1.34,0.18c-0.21,0-0.51-0.2-0.6-0.39c-0.08-0.19-0.02-0.57,0.13-0.7c1.32-1.17,2.61-1.12,3.49,0.15
	c0.47,0.68,0.84,1.43,1.31,2.25c0.23-0.23,0.47-0.41,0.62-0.64c1.11-1.72,2.39-3.3,3.79-4.78c0.75-0.79,1.59-1.5,2.43-2.21
	C98.11,20.39,98.47,20.32,98.96,20.11z"/>
</svg>
