<?xml version="1.0" encoding="utf-8"?>
<!-- Generator: Adobe Illustrator 25.4.1, SVG Export Plug-In . SVG Version: 6.00 Build 0)  -->
<svg version="1.1" id="Capa_1" xmlns="http://www.w3.org/2000/svg" xmlns:xlink="http://www.w3.org/1999/xlink" x="0px" y="0px"
	 viewBox="0 0 580 580" style="enable-background:new 0 0 580 580;" xml:space="preserve">
<style type="text/css">
	.st0{fill-rule:evenodd;clip-rule:evenodd;fill:#56B039;}
	.st1{fill-rule:evenodd;clip-rule:evenodd;fill:#FFFFFF;}
</style>
<g>
	<path class="st0" d="M277.92,0h24.17C454.94,0,580,130.5,580,290v0c0,159.5-125.06,290-277.92,290h-24.17C125.06,580,0,449.5,0,290
		v0C0,130.5,125.06,0,277.92,0z"/>
	<g>
		<path class="st1" d="M293.01,430.31c-28.41,0-54.76-8.92-76.94-23.99l-53.6,17.72l17.33-53.88
			c-16.75-23.62-26.69-53.28-26.69-84.98c0-4.7,0.35-9.16,0.92-13.86c6.82-73.41,66.66-130.79,138.97-130.79
			c73.47,0,133.88,58.94,139.54,133.44c0.23,3.86,0.23,7.71,0.23,11.21C432.78,365.1,370.06,430.31,293.01,430.31L293.01,430.31z
			 M459.11,281.08c-2.19-93.18-75.66-167.79-166.1-167.79c-89.42,0-162.3,72.81-166,164.54c-0.23,2.41-0.23,5.06-0.23,7.35
			c0,32.67,8.78,63.04,23.8,89.2l-30.03,92.33l92.18-30.5c23.8,13.62,51.28,21.21,80.28,21.21c91.83,0,166.46-76.91,166.46-172.25
			C459.46,283.73,459.11,282.53,459.11,281.08z"/>
		<path class="st1" d="M341.52,304.83c-4.05-1.08-6.59-2.05-9.48,2.41c-4.16,6.87-12.94,21.94-21.49,17.48
			c-4.27-2.05-17.32-6.51-32.92-20.97c-12.13-11.33-20.45-24.95-22.65-29.05c-3.58-6.99,7.74-14.34,11.9-23.14
			c1.38-2.89,0.81-5.3-0.34-7.35c-0.81-2.05-9.01-23.02-12.47-31.34c-3.35-8.56-6.82-7.11-9.01-7.11
			c-22.65,0-33.27,16.76-33.27,40.26c0,4.7,0.93,9.76,2.31,14.22c4.04,15.07,13.05,27.24,14.45,29.29
			c1.96,2.89,28.07,46.77,69.54,63.65c41.7,16.87,41.7,11.21,49.09,10.6c7.28-0.6,24.03-10.01,27.5-20.13
			c3.35-9.76,3.35-18.32,2.19-20.13C375.48,320.98,341.52,304.95,341.52,304.83z"/>
	</g>
</g>
</svg>
